<?xml version="1.0" encoding="UTF-8"?>
<svg version="1.1" xmlns="http://www.w3.org/2000/svg" width="512" height="512">
<path d="M0 0 C1.32733456 0.51635942 2.65539583 1.03085701 3.984375 1.54296875 C6.11870645 2.36627986 8.24865338 3.20118951 10.37109375 4.0546875 C23.98717527 8.95081191 36.15087456 4.84908658 49 0 C50.53359729 -0.5671014 52.06744796 -1.13351811 53.6015625 -1.69921875 C56.35313622 -2.7191751 59.09900298 -3.75234105 61.83984375 -4.80078125 C69.70585712 -7.78578262 78.86575068 -8.69356594 86.99609375 -6.01171875 C98.0792979 0.12640523 104.38483981 12.46467703 110.7109375 22.96484375 C121.12329008 39.80835527 133.82416757 44.30167928 152.19848633 49.05224609 C172.56593272 54.35775633 172.56593272 54.35775633 178.875 61.8125 C179.40867187 62.41707031 179.94234375 63.02164063 180.4921875 63.64453125 C184.82945264 70.42010348 185.4011596 76.449192 185.1875 84.2734375 C185.17046021 85.71911606 185.17046021 85.71911606 185.15307617 87.19400024 C185.10443667 91.28282061 185.02003493 95.37070946 184.93847656 99.45898438 C184.88383291 102.45959206 184.84780051 105.4600495 184.8125 108.4609375 C184.78760498 109.36854828 184.76270996 110.27615906 184.73706055 111.21127319 C184.64326587 119.4870327 186.15192087 127.39150747 191.3125 134.0625 C192.00730469 134.97257813 192.70210938 135.88265625 193.41796875 136.8203125 C195.37848564 139.26798814 197.3977304 141.66279844 199.42578125 144.0546875 C217.49017746 165.41727733 217.49017746 165.41727733 217.26953125 179.2578125 C216.15138872 190.63369737 208.06899209 199.50516544 200.86523438 207.79321289 C190.8498042 219.32774131 184.57744385 229.70037603 184.91015625 245.2109375 C184.93057882 247.19791421 184.95075343 249.18489348 184.97070312 251.171875 C185.0141226 254.27452792 185.06253483 257.37700384 185.11645508 260.47949219 C185.16503974 263.49413425 185.1947049 266.5085435 185.22265625 269.5234375 C185.2552932 270.89730118 185.2552932 270.89730118 185.28858948 272.29891968 C185.34567302 279.79669516 184.03359372 285.97866076 179.8125 292.25 C173.86451977 298.06580289 167.36689403 300.87167608 159.4375 303.0625 C158.56488525 303.31580078 157.69227051 303.56910156 156.79321289 303.83007812 C152.79598159 304.97998161 148.78989073 306.06889776 144.75 307.05859375 C125.96667278 311.69668992 117.18668196 320.45008793 107.4375 336.5625 C106.91945801 337.44881104 106.40141602 338.33512207 105.86767578 339.24829102 C100.34785228 348.56180468 94.11979128 356.94866088 83.9375 361.3125 C70.80465022 363.60553726 59.78654725 358.7438699 47.74121094 354.06005859 C44.87894005 352.95318469 42.01031976 351.86743511 39.1328125 350.80078125 C38.2680127 350.47891846 37.40321289 350.15705566 36.51220703 349.82543945 C22.70032249 345.28724882 10.50100912 350.11507586 -2.46484375 355.078125 C-27.7640072 364.72488046 -27.7640072 364.72488046 -38.95703125 360.1171875 C-48.86525304 354.69892473 -54.44811357 344.71089871 -60.25390625 335.3984375 C-71.50490572 317.37727139 -81.87969365 310.73808089 -102.125 305.4375 C-127.74258397 298.69986004 -127.74258397 298.69986004 -133.1875 289.625 C-136.82874968 283.08624526 -137.24645433 277.23889376 -137.08984375 269.921875 C-137.06941436 267.93620044 -137.04924013 265.95052325 -137.02929688 263.96484375 C-136.98593689 260.86007295 -136.93759544 257.75548217 -136.88354492 254.65087891 C-136.83487292 251.63705072 -136.80526003 248.62345695 -136.77734375 245.609375 C-136.75558578 244.69549011 -136.73382782 243.78160522 -136.71141052 242.84002686 C-136.64719389 234.37504531 -138.2349217 226.50309924 -143.5 219.6875 C-144.19996094 218.77355469 -144.89992188 217.85960937 -145.62109375 216.91796875 C-148.21770804 213.73295911 -150.88176164 210.61406319 -153.5625 207.5 C-161.38974449 198.40405379 -169.8983014 188.03780833 -169.3359375 175.40625 C-167.60627721 163.01705538 -159.61949744 154.17680919 -151.74414062 145.03710938 C-142.16031882 133.91046223 -136.58920245 124.7514552 -136.91015625 109.7890625 C-136.93057882 107.80208579 -136.95075343 105.81510652 -136.97070312 103.828125 C-137.0141226 100.72547208 -137.06253483 97.62299616 -137.11645508 94.52050781 C-137.16503974 91.50586575 -137.1947049 88.4914565 -137.22265625 85.4765625 C-137.24441422 84.56065338 -137.26617218 83.64474426 -137.28858948 82.70108032 C-137.35519332 73.95283924 -135.51166847 66.35312293 -129.26904297 59.98217773 C-121.24043765 52.96859407 -110.4680528 50.4555064 -100.375 47.9375 C-84.02009944 44.04260331 -84.02009944 44.04260331 -71 34 C-70.52820313 33.45601562 -70.05640625 32.91203125 -69.5703125 32.3515625 C-64.56546859 26.29306724 -60.51959693 19.61356029 -56.43920898 12.91552734 C-41.5773861 -11.19709736 -24.1516071 -9.65961686 0 0 Z M-58.68359375 98.6171875 C-79.34935762 120.34686745 -90.53054571 149.73021637 -90.1484375 179.6875 C-88.65761866 212.95629939 -74.75406959 240.27600613 -50.8125 263.0625 C-28.82051312 282.57694733 0.54084559 292.53282412 29.85058594 291.14794922 C61.60237197 288.9623992 89.9443003 274.85042304 111 251 C130.31312794 227.37430163 140.18643137 197.66228168 137.55249023 167.09033203 C134.32390444 136.44668453 120.04031748 109.58762554 96.9375 89.33984375 C49.09406177 51.23050931 -15.62123657 56.62041995 -58.68359375 98.6171875 Z " fill="#000000" transform="translate(232,7)"/>
<path d="M0 0 C9.87886847 21.48098008 19.60472095 43.02374136 29.17904663 64.64208984 C32.26422902 71.60454982 35.37965353 78.55322554 38.5 85.5 C40.36111934 89.64956963 42.22123519 93.79958836 44.08099365 97.94976807 C44.7298965 99.39742002 45.37904969 100.84495977 46.02838135 102.29241943 C48.26044094 107.26810187 50.48855672 112.24552029 52.71191406 117.22509766 C53.44219362 118.85899287 54.1737896 120.49230038 54.90673828 122.125 C55.92697114 124.39820779 56.94254646 126.67344113 57.95703125 128.94921875 C58.26570633 129.63420944 58.57438141 130.31920013 58.89241028 131.02494812 C61 135.77190517 61 135.77190517 61 138 C51.58467685 137.51049423 42.60161095 136.0893035 33.37109375 134.22265625 C29.88723091 133.56106734 26.39919077 132.92202663 22.91149807 132.28098392 C19.30132474 131.61265968 15.70073675 130.91663357 12.10766602 130.16137695 C-2.83479626 126.31333448 -2.83479626 126.31333448 -17.42831421 128.09188843 C-21.37145743 131.11509992 -23.79630958 134.87954669 -26.06130981 139.25003052 C-27.25276782 141.47122679 -28.75866267 143.21202142 -30.48046875 145.04296875 C-34.94699943 150.22909402 -39.37857645 155.43117249 -43.6875 160.75 C-47.22877414 165.1143811 -50.93337214 169.28770324 -54.7265625 173.43359375 C-57.98918845 177.11666119 -61.02283739 180.97362555 -64.0546875 184.84765625 C-66 187 -66 187 -69 188 C-75.64380246 158.5390003 -81.93807567 129.00515718 -88.21124268 99.46337891 C-89.54456189 93.18626517 -90.87979581 86.90955874 -92.21484375 80.6328125 C-94.81171501 68.42226125 -97.40654991 56.21127831 -100 44 C-96.42868022 42.80956007 -95.68672342 43.25351837 -92.2890625 44.6171875 C-91.37382812 44.97683594 -90.45859375 45.33648437 -89.515625 45.70703125 C-88.08476562 46.28517578 -88.08476562 46.28517578 -86.625 46.875 C-84.74362674 47.62601139 -82.86085373 48.37352762 -80.9765625 49.1171875 C-80.14205566 49.45347168 -79.30754883 49.78975586 -78.44775391 50.13623047 C-70.36393547 52.98886857 -60.57419505 53.65547148 -52.4921875 50.73046875 C-49.5796112 49.25986818 -46.78937979 47.69026782 -44 46 C-43.27167969 45.68804687 -42.54335938 45.37609375 -41.79296875 45.0546875 C-39.49356154 43.70209502 -39.08784366 42.40470703 -38 40 C-36.8808644 38.60318414 -35.73111519 37.23069081 -34.5625 35.875 C-30.09024136 30.40709254 -26.51766071 24.50653203 -22.94555664 18.42138672 C-19.42625922 12.47914621 -15.98566344 6.77002621 -9.875 3.1875 C-9.21242188 2.78917969 -8.54984375 2.39085937 -7.8671875 1.98046875 C-5.12111552 0.53849372 -3.11358943 0 0 0 Z " fill="#000000" transform="translate(372,324)"/>
<path d="M0 0 C9.04086169 1.67423365 14.58567287 6.2287312 19.85888672 13.59765625 C21.7768537 16.52219083 23.64898452 19.47015045 25.5 22.4375 C29.53190169 28.87607291 33.49726332 34.92962499 38.73242188 40.46118164 C40 42 40 42 40 44 C40.55042969 44.26554687 41.10085937 44.53109375 41.66796875 44.8046875 C43.30733487 45.64496561 44.91279542 46.5531225 46.48828125 47.5078125 C56.99016834 53.5213412 66.65025261 53.40351556 78.1875 50.3125 C83.81999149 48.53314473 89.21277045 46.32942527 94.57421875 43.85546875 C97 43 97 43 100 44 C96.10658702 62.18482834 92.21239374 80.36948942 88.31726933 98.55395126 C86.5087491 106.99715108 84.70048506 115.44040562 82.89282227 123.88378906 C81.31741877 131.24231309 79.74153648 138.60073439 78.16507715 145.9590323 C77.33023548 149.85582982 76.49563502 153.75267866 75.66160774 157.64965057 C74.87671275 161.31701614 74.09117801 164.98424409 73.30515099 168.65136719 C73.01668324 169.99773353 72.72844988 171.34415011 72.44046783 172.69062042 C72.04733362 174.52856233 71.65327561 176.36630656 71.25917053 178.20404053 C71.03886201 179.2327615 70.81855349 180.26148247 70.59156895 181.3213768 C70.09739859 183.55897933 69.57083821 185.78094554 69 188 C66.04688061 186.68904505 64.17235391 185.3658972 62.08203125 182.91015625 C61.55448242 182.29615967 61.02693359 181.68216309 60.48339844 181.04956055 C59.93200195 180.39383057 59.38060547 179.73810059 58.8125 179.0625 C58.23661133 178.38807861 57.66072266 177.71365723 57.06738281 177.01879883 C53.01049594 172.250882 49.04806402 167.40883092 45.109375 162.54296875 C42.97013194 159.9639924 40.75575063 157.47743647 38.5 155 C35.40086842 151.59418352 32.41355252 148.12856689 29.5 144.5625 C28.75878906 143.66015625 28.01757812 142.7578125 27.25390625 141.828125 C25.69608374 139.87342223 24.18544772 137.88051276 22.71484375 135.859375 C21.58755859 134.35117187 21.58755859 134.35117187 20.4375 132.8125 C19.77621094 131.89082031 19.11492187 130.96914063 18.43359375 130.01953125 C15.04393042 127.20660037 12.1966327 127.66625898 8 128 C3.87429543 128.52543711 -0.22707029 129.1710043 -4.32979202 129.85195923 C-6.38948262 130.19379337 -8.45030918 130.52785752 -10.51156616 130.86010742 C-14.1432345 131.44675157 -17.77377858 132.04004375 -21.4039917 132.63562012 C-27.21985275 133.58977358 -33.03653622 134.53865161 -38.85477829 135.47817993 C-40.87723019 135.80652036 -42.89865162 136.14073306 -44.92007446 136.4753418 C-46.15510712 136.67554932 -47.39013977 136.87575684 -48.66259766 137.08203125 C-49.74433258 137.25968018 -50.8260675 137.4373291 -51.94058228 137.62036133 C-54.99462107 137.99933254 -57.92602695 138.06773008 -61 138 C-58.6504389 130.14774934 -55.29934671 122.84048158 -51.85290527 115.42681885 C-50.03785184 111.52018412 -48.24025216 107.60552381 -46.44140625 103.69140625 C-46.06974335 102.8834259 -45.69808044 102.07544556 -45.31515503 101.24298096 C-41.55978057 93.06659608 -37.89435738 84.85134687 -34.25 76.625 C-33.93094696 75.90532043 -33.61189392 75.18564087 -33.28317261 74.44415283 C-31.59876325 70.64443014 -29.91570388 66.84411163 -28.23339844 63.04345703 C-24.39650355 54.37671283 -20.54995866 45.71425017 -16.70251465 37.05218506 C-15.40919452 34.13950921 -14.11713734 31.22627561 -12.82519531 28.31298828 C-8.62136259 18.84132548 -4.38744232 9.38842911 0 0 Z " fill="#000000" transform="translate(140,324)"/>
<path d="M0 0 C0.66 0 1.32 0 2 0 C5.26429124 6.48229462 8.52428982 12.96672848 11.77878571 19.45394707 C13.29002328 22.46597356 14.80274398 25.47723594 16.31884766 28.48681641 C18.06005858 31.94507451 19.79615962 35.40585538 21.53125 38.8671875 C22.07809448 39.95055389 22.62493896 41.03392029 23.18835449 42.15011597 C23.93913269 43.65144577 23.93913269 43.65144577 24.70507812 45.18310547 C25.14920044 46.06690887 25.59332275 46.95071228 26.05090332 47.86129761 C27 50 27 50 27 52 C27.7640918 52.03810791 28.52818359 52.07621582 29.31542969 52.11547852 C39.45004911 52.7221698 49.42419476 54.05029603 59.46337891 55.52905273 C62.28544668 55.94269558 65.10935106 56.341744 67.93359375 56.74023438 C69.73189814 57.00173016 71.53008034 57.26406796 73.328125 57.52734375 C74.17070862 57.6451268 75.01329224 57.76290985 75.88140869 57.88426208 C81.77086161 58.77086161 81.77086161 58.77086161 84 61 C78.9498189 66.07554588 73.8957137 71.14715945 68.83886719 76.21606445 C67.1192113 77.94074762 65.40045421 79.66632745 63.68261719 81.39282227 C61.21264882 83.87492631 58.73946137 86.35378304 56.265625 88.83203125 C55.49881409 89.60400345 54.73200317 90.37597565 53.94195557 91.17134094 C53.22151062 91.89186142 52.50106567 92.6123819 51.75878906 93.35473633 C51.12813538 93.98761063 50.49748169 94.62048492 49.84771729 95.27253723 C47.99147427 97.00797085 46.06009692 98.51519364 44 100 C45.38865483 112.3885506 47.41917034 124.60925024 49.625 136.875 C50.11228695 139.59985856 50.59839493 142.32491753 51.08261108 145.05032349 C51.38111373 146.7289593 51.68151206 148.4072594 51.98403931 150.08517456 C53 155.77738612 53 155.77738612 53 158 C48.60794652 156.64802786 44.67061877 154.92727249 40.59765625 152.8046875 C40.00243164 152.4957254 39.40720703 152.18676331 38.79394531 151.86843872 C37.53088336 151.21195507 36.26886862 150.55345318 35.00784302 149.89306641 C33.04817925 148.86750545 31.08494283 147.84907991 29.12084961 146.83203125 C23.69988643 144.01897721 18.28938666 141.19548537 12.96875 138.1953125 C12.28675537 137.81391113 11.60476074 137.43250977 10.90209961 137.03955078 C9.20889684 136.0827283 7.52765142 135.10482708 5.84765625 134.125 C2.304149 132.7250959 0.68637977 133.12735168 -3 134 C-5.14723287 134.94151445 -7.2572219 135.97060962 -9.33203125 137.0625 C-10.21693741 137.52396423 -10.21693741 137.52396423 -11.11972046 137.99475098 C-13.02143843 138.9888514 -14.91682565 139.99443118 -16.8125 141 C-18.11781999 141.68375554 -19.42356755 142.36669542 -20.72973633 143.04882812 C-26.37943788 146.00506885 -32.00967352 148.99566586 -37.6171875 152.03125 C-38.40633545 152.45664063 -39.1954834 152.88203125 -40.00854492 153.3203125 C-41.4271385 154.08833986 -42.84162708 154.86401441 -44.2512207 155.6484375 C-45.80317754 156.49195005 -47.39785182 157.25622271 -49 158 C-49.66 157.67 -50.32 157.34 -51 157 C-50.8850267 156.34711502 -50.77005341 155.69423004 -50.65159607 155.02156067 C-49.45680292 148.2264447 -48.27466471 141.42921375 -47.09985352 134.63061523 C-46.6597394 132.09359179 -46.21640082 129.55712551 -45.76977539 127.02124023 C-45.12838929 123.37625515 -44.49862331 119.7294241 -43.87109375 116.08203125 C-43.66906845 114.94852737 -43.46704315 113.8150235 -43.25889587 112.64717102 C-43.07863358 111.58644882 -42.89837128 110.52572662 -42.71264648 109.43286133 C-42.55054184 108.50242508 -42.38843719 107.57198883 -42.22142029 106.61335754 C-41.98425395 103.81415403 -42.22706452 101.69518629 -43 99 C-44.76118255 96.97104572 -44.76118255 96.97104572 -47.1171875 95.12890625 C-51.71090972 91.18242918 -56.04575169 87.06754003 -60.3203125 82.77734375 C-60.95515564 82.14140289 -61.58999878 81.50546204 -62.24407959 80.85025024 C-64.20645095 78.88137688 -66.16578593 76.90951466 -68.125 74.9375 C-69.47632686 73.5811454 -70.82788772 72.2250239 -72.1796875 70.86914062 C-75.45582527 67.58210445 -78.72879311 64.29194304 -82 61 C-79.63974201 58.63974201 -78.71163044 58.59918041 -75.4777832 58.13037109 C-74.53953201 57.99037689 -73.60128082 57.85038269 -72.63459778 57.70614624 C-71.61693832 57.56335236 -70.59927887 57.42055847 -69.55078125 57.2734375 C-68.5048027 57.12089508 -67.45882416 56.96835266 -66.38114929 56.81118774 C-64.16328436 56.48960182 -61.94482101 56.17212061 -59.72583008 55.85839844 C-56.34237325 55.37923067 -52.96119397 54.88601213 -49.58007812 54.390625 C-47.4246004 54.07988706 -45.26900486 53.76996501 -43.11328125 53.4609375 C-42.10574295 53.31409515 -41.09820465 53.16725281 -40.06013489 53.01596069 C-34.98401312 52.30462151 -30.12563906 51.83317474 -25 52 C-24.77779785 51.22962402 -24.5555957 50.45924805 -24.32666016 49.66552734 C-22.52596073 44.69024189 -20.15753162 40.06980906 -17.7734375 35.3515625 C-17.26575836 34.33903412 -16.75807922 33.32650574 -16.23501587 32.28329468 C-14.61876815 29.06195992 -12.99696807 25.84345768 -11.375 22.625 C-10.27567379 20.43638266 -9.17671129 18.24758259 -8.078125 16.05859375 C-5.38962751 10.70360465 -2.69657056 5.35092794 0 0 Z " fill="#000000" transform="translate(255,97)"/>
</svg>
