<?xml version="1.0" encoding="UTF-8"?>
<svg version="1.1" xmlns="http://www.w3.org/2000/svg" width="512" height="512">
<path d="M0 0 C2.70733408 1.41473473 5.36403246 2.90689042 8.01123047 4.4309082 C10.82167002 6.0074825 13.67800527 7.47463084 16.54736328 8.94116211 C18.70151955 10.0586683 20.85516629 11.17715724 23.00830078 12.29663086 C24.54345337 13.07816528 24.54345337 13.07816528 26.10961914 13.87548828 C33.84224821 17.98915781 39.01199076 22.55709082 43.38330078 30.17163086 C44.74129593 34.80479078 44.70600585 39.00693014 44.44580078 43.79663086 C45.14294189 44.05927734 45.84008301 44.32192383 46.55834961 44.5925293 C49.70663645 45.90540244 52.64319316 47.44212967 55.64501953 49.06225586 C75.30692314 59.73123144 75.30692314 59.73123144 96.44580078 66.79663086 C97.19071777 66.97162109 97.93563477 67.14661133 98.703125 67.3269043 C114.82980269 70.90468819 131.44328524 72.22961831 147.85327148 73.87109375 C180.43066536 77.20531336 207.92556931 83.68484065 230.38696289 109.2109375 C234.00147437 113.75040045 236.75538568 118.73667351 239.57080078 123.79663086 C240.21186768 124.9280249 240.85293457 126.05941895 241.51342773 127.22509766 C243.17859287 130.16511045 244.83030812 133.11242157 246.47723389 136.06268311 C248.0154701 138.81646423 249.56134292 141.56595474 251.10595703 144.31616211 C253.43723287 148.47254148 255.76335515 152.63175446 258.08642578 156.79272461 C268.84003078 176.04900231 268.84003078 176.04900231 280.44580078 194.79663086 C292.58992356 213.67412864 298.13685639 235.05344989 293.30151367 257.33251953 C291.88759878 263.10953593 289.86509092 268.1556645 287.35449219 273.54858398 C286.81079987 274.71877075 286.26710754 275.88895752 285.7069397 277.09460449 C285.29076385 277.98627319 284.87458801 278.87794189 284.44580078 279.79663086 C285.34336735 279.79744801 285.34336735 279.79744801 286.25906658 279.79828167 C300.82334358 279.81325324 315.38736127 279.85571514 329.95145702 279.92872143 C336.99461004 279.96336509 344.03756748 279.9887261 351.08081055 279.9921875 C357.87613326 279.99555319 364.67094834 280.02484914 371.46611977 280.07006264 C374.06045989 280.08306677 376.6548588 280.08733508 379.24922752 280.08278465 C382.87934058 280.07789979 386.50800435 280.10388079 390.13793945 280.13720703 C391.7520295 280.12426857 391.7520295 280.12426857 393.39872742 280.11106873 C400.70019644 280.22366605 400.70019644 280.22366605 404.59004211 283.21284485 C407.59621703 287.3983636 407.59420584 290.38856935 407.5929718 295.40403748 C407.59664849 296.19836136 407.60032518 296.99268525 407.60411328 297.81107956 C407.61517583 300.48782901 407.61899838 303.16453967 407.62280273 305.84130859 C407.6290657 307.75476709 407.63571235 309.66822437 407.64271545 311.5816803 C407.66014653 316.79287382 407.67068405 322.00405815 407.67892098 327.21527362 C407.68406918 330.47209568 407.69014515 333.72891489 407.69643211 336.98573494 C407.71549444 347.17805225 407.72972049 357.37036229 407.73804408 367.56269401 C407.74780592 379.3221445 407.77409361 391.08140621 407.81454498 402.84079021 C407.84474028 411.9313747 407.8595164 421.02190522 407.8628251 430.11253887 C407.86517267 435.5405543 407.87409442 440.96836832 407.89928627 446.39632988 C407.92263009 451.50910116 407.92677481 456.62153937 407.91652489 461.7343502 C407.91603087 463.60514689 407.92231158 465.47596031 407.93608093 467.34670639 C408.02508307 480.16215213 407.68437028 491.29786608 398.30517578 501.07788086 C392.143232 506.77379528 386.35141197 510.04133619 377.71947765 510.05389977 C376.59491167 510.06034866 375.47034569 510.06679755 374.31170195 510.07344186 C373.08632368 510.07034466 371.8609454 510.06724746 370.59843445 510.0640564 C369.28883768 510.06858751 367.97924092 510.07311862 366.6299594 510.07778704 C363.0009604 510.09000844 359.37205365 510.0897576 355.74303877 510.08739829 C351.82676566 510.08698991 347.91052204 510.09803132 343.9942627 510.10751343 C336.32383509 510.12411959 328.65343823 510.1296228 320.98299416 510.13073818 C314.7475116 510.13168882 308.51203918 510.13579991 302.27655983 510.14213943 C284.59424793 510.15975067 266.91196029 510.16897847 249.22963955 510.16747849 C248.2765709 510.16739857 247.32350225 510.16731866 246.34155273 510.16723633 C244.91020243 510.16711369 244.91020243 510.16711369 243.44993595 510.16698857 C227.98519109 510.16617566 212.52054362 510.18531476 197.05582692 510.21351306 C181.17326228 510.24224455 165.29074513 510.25605322 149.40815383 510.25432551 C140.49268436 510.25366171 131.57731701 510.25914972 122.66187096 510.28068161 C115.07111231 510.29889687 107.48050206 510.30323792 99.88973101 510.28966276 C96.01818601 510.28313487 92.14692568 510.28300923 88.27540779 510.30036926 C84.07476268 510.3190111 79.87477604 510.30654096 75.67411804 510.29110718 C74.45543193 510.3013943 73.23674582 510.31168143 71.98112983 510.32228029 C61.80641463 510.23963832 54.69755993 507.66480122 47.23486328 500.72241211 C40.68628843 493.67340032 38.13655793 486.20767738 38.18510437 476.62986755 C38.17936605 475.42077975 38.17936605 475.42077975 38.1735118 474.18726593 C38.16321963 471.49505695 38.1671667 468.80306273 38.17114258 466.11083984 C38.1667941 464.1772034 38.1616105 462.24356868 38.15565491 460.30993652 C38.14227059 455.06423619 38.14168545 449.81860793 38.14421821 444.57289386 C38.14528796 440.1939098 38.1404046 435.81494033 38.13561279 431.4359594 C38.12452028 421.10768579 38.12407923 410.77944856 38.13012695 400.45117188 C38.13617207 389.79244411 38.12384146 379.13384817 38.10255688 368.4751429 C38.08495456 359.32426786 38.07893723 350.17343484 38.08219463 341.02254349 C38.08400928 335.55682131 38.08135282 330.09119324 38.06748009 324.62548637 C38.05492811 319.48808559 38.0568209 314.35089088 38.06989098 309.21349335 C38.07226177 307.32728316 38.06950412 305.44105858 38.06126785 303.55486488 C38.05084154 300.98180604 38.05886761 298.40944402 38.07157898 295.83641052 C38.06051755 294.71462069 38.06051755 294.71462069 38.04923266 293.57016844 C38.09537009 289.13677635 38.69319298 286.30748289 41.44580078 282.79663086 C44.59036698 280.70025339 45.29058686 280.54773235 48.86869812 280.55612183 C50.22535583 280.55199783 50.22535583 280.55199783 51.60942078 280.54779053 C52.59916397 280.55498108 53.58890717 280.56217163 54.60864258 280.56958008 C56.17474777 280.569142 56.17474777 280.569142 57.77249146 280.56869507 C61.2300848 280.57009053 64.68746374 280.58566209 68.14501953 280.60131836 C70.53969708 280.60504771 72.93437616 280.60789505 75.32905579 280.6098938 C81.63705648 280.61753633 87.94496533 280.63719022 94.25292969 280.65930176 C100.68765012 280.67974679 107.12238537 280.68889265 113.55712891 280.69897461 C126.18672542 280.72043546 138.81625822 280.75419542 151.44580078 280.79663086 C151.031483 280.00289063 150.61716522 279.20915039 150.19029236 278.39135742 C149.6480452 277.33400391 149.10579803 276.27665039 148.54711914 275.18725586 C148.00905136 274.14601563 147.47098358 273.10477539 146.91661072 272.03198242 C145.48344611 268.87943958 144.60595595 265.91199998 143.82470703 262.54663086 C141.43015761 255.0058253 136.05002409 252.42203501 129.38330078 248.79663086 C128.19765752 248.11630848 127.01424382 247.43208682 125.83300781 246.74414062 C123.47268138 245.37315049 121.10428449 244.01833508 118.72753906 242.67602539 C114.33657594 240.16139705 110.07613305 237.46976816 105.82080078 234.73413086 C104.30176831 233.7737061 102.78222914 232.81408234 101.26220703 231.85522461 C97.75787597 229.63676581 94.27034055 227.39344144 90.78564453 225.14428711 C79.67630089 218.02682467 68.49549447 211.64328452 56.63183594 205.86743164 C37.34740416 196.43556218 23.02471617 183.35953202 11.88330078 165.04663086 C6.66069381 156.63651729 0.02782252 150.63377039 -8.55419922 145.79663086 C-8.71919922 146.49788086 -8.88419922 147.19913086 -9.05419922 147.92163086 C-11.9627537 153.49636029 -17.68527051 156.85489886 -23.55419922 158.79663086 C-36.33252981 161.06487111 -45.66934845 155.71111338 -56.55419922 149.79663086 C-57.54387695 149.27214355 -58.53355469 148.74765625 -59.55322266 148.20727539 C-62.67040493 146.55105875 -65.77109727 144.86780732 -68.86669922 143.17163086 C-69.83921631 142.64609619 -70.8117334 142.12056152 -71.8137207 141.57910156 C-79.35858675 137.33119614 -85.34286039 132.50553609 -88.08154297 124.02709961 C-91.04558925 110.03974071 -83.26168177 99.07985163 -77.05419922 87.10913086 C-76.52297455 86.08160706 -76.52297455 86.08160706 -75.98101807 85.0333252 C-71.10734765 75.60905223 -66.12999918 66.25100615 -61.00244141 56.96191406 C-57.2958537 50.2240915 -53.74051241 43.41311061 -50.22073364 36.57635498 C-41.74955796 20.12704843 -41.74955796 20.12704843 -37.99169922 13.42163086 C-37.43353516 12.42389648 -36.87537109 11.42616211 -36.30029297 10.39819336 C-28.01634457 -1.94433379 -13.52777243 -6.39634189 0 0 Z M-17.10449219 20.28417969 C-17.53906738 20.99598389 -17.97364258 21.70778809 -18.42138672 22.44116211 C-19.17887207 23.67987061 -19.17887207 23.67987061 -19.95166016 24.94360352 C-22.66415479 29.77270349 -25.23017693 34.66796021 -27.73052979 39.60998535 C-29.36754214 42.84398788 -31.02346023 46.06827977 -32.67919922 49.29272461 C-33.00985382 49.93730621 -33.34050842 50.58188782 -33.68118286 51.2460022 C-36.58831558 56.89736602 -39.6095123 62.48191895 -42.67919922 68.04663086 C-47.60178177 76.9786019 -52.34227749 85.99650982 -57.015625 95.0612793 C-57.52077637 96.04 -58.02592773 97.0187207 -58.54638672 98.02709961 C-59.28066895 99.45868408 -59.28066895 99.45868408 -60.02978516 100.91918945 C-61.08061393 102.9027045 -62.17546091 104.86330912 -63.30517578 106.80297852 C-63.86430664 107.7663916 -64.4234375 108.72980469 -64.99951172 109.72241211 C-65.51271973 110.57875244 -66.02592773 111.43509277 -66.5546875 112.31738281 C-67.78586293 115.37126326 -67.77067994 116.74471394 -66.55419922 119.79663086 C-64.59230553 121.47960119 -64.59230553 121.47960119 -62.03076172 122.69897461 C-61.09103516 123.19719727 -60.15130859 123.69541992 -59.18310547 124.20874023 C-58.19181641 124.71211914 -57.20052734 125.21549805 -56.17919922 125.73413086 C-54.25472005 126.74324544 -52.33024089 127.75236003 -50.40576172 128.76147461 C-48.9579834 129.49986572 -48.9579834 129.49986572 -47.48095703 130.25317383 C-45.49856679 131.29860852 -43.54436974 132.39900002 -41.61962891 133.54711914 C-40.67764648 134.10512207 -39.73566406 134.663125 -38.76513672 135.23803711 C-37.93030762 135.75180908 -37.09547852 136.26558105 -36.23535156 136.79492188 C-32.53644931 138.17687379 -30.3205665 137.92147734 -26.55419922 136.79663086 C-24.4203522 134.37595505 -24.4203522 134.37595505 -23.01123047 131.12866211 C-22.72091446 130.54636337 -22.43059845 129.96406464 -22.13148499 129.36412048 C-21.18613769 127.45645946 -20.27726242 125.53360211 -19.36669922 123.60913086 C-18.71164442 122.2753037 -18.0535714 120.94295482 -17.39257812 119.61206055 C-16.39108338 117.59466965 -15.39149701 115.57658489 -14.40142822 113.55355835 C-11.57905777 107.78896238 -8.54898854 102.15575316 -5.42919922 96.54663086 C-0.56622704 87.73274941 4.09727133 78.82555302 8.70288086 69.87475586 C12.46387538 62.59401013 16.37339796 55.41470017 20.55175781 48.36401367 C22.09716744 45.6804614 23.35728687 43.10711041 24.20751953 40.12475586 C22.87702473 36.05821791 19.0166887 34.71015593 15.44580078 32.79663086 C14.45016113 32.23379395 13.45452148 31.67095703 12.42871094 31.09106445 C9.05498015 29.19073227 5.65970579 27.33441896 2.25830078 25.48413086 C1.38395386 24.99867798 1.38395386 24.99867798 0.49194336 24.50341797 C-1.21965105 23.55321998 -2.93957504 22.61807521 -4.65966797 21.68334961 C-5.67182373 21.1286499 -6.68397949 20.5739502 -7.72680664 20.00244141 C-11.27440824 18.48948015 -14.09773779 17.39911598 -17.10449219 20.28417969 Z M35.44580078 62.79663086 C34.81303223 64.03243896 34.81303223 64.03243896 34.16748047 65.29321289 C32.17985321 69.17086552 30.18904427 73.04686271 28.19580078 76.92163086 C27.83465179 77.62380737 27.47350281 78.32598389 27.10140991 79.04943848 C21.99193245 88.97331331 16.79345645 98.83702296 11.34130859 108.57836914 C8.04520953 114.51350178 5.17729107 120.58221473 2.44580078 126.79663086 C3.18443359 127.31870117 3.92306641 127.84077148 4.68408203 128.37866211 C16.39117279 136.87262504 25.24191432 146.02928663 33.05517578 158.14819336 C42.90763592 173.35525141 54.71367762 181.14350907 70.68115234 188.86279297 C83.1380289 194.96445097 94.74891822 202.36859902 106.44580078 209.79663086 C108.11848378 210.85080066 109.7916224 211.90424806 111.46533203 212.95678711 C114.50597623 214.87153764 117.54361109 216.79091933 120.57861328 218.71459961 C126.36086138 222.37781958 132.14986061 226.03011146 137.94580078 229.67163086 C138.92500488 230.29046143 139.90420898 230.90929199 140.91308594 231.546875 C145.69807764 234.54856178 150.51814747 237.48771268 155.41455078 240.30444336 C156.72069336 241.06072021 156.72069336 241.06072021 158.05322266 241.83227539 C160.36404628 242.974588 160.36404628 242.974588 162.67822266 242.59692383 C164.6898919 241.89508687 164.6898919 241.89508687 165.75830078 239.48413086 C167.78414564 228.61823569 164.78686232 217.60712155 158.90161133 208.37402344 C153.51204019 200.60475042 147.13532005 194.16411685 140.38330078 187.60913086 C138.28435156 185.55708912 136.1898811 183.50055438 134.09814453 181.44116211 C133.59973053 180.95120255 133.10131653 180.46124298 132.58779907 179.95643616 C128.66122811 176.07067366 125.01783816 172.00533174 121.44580078 167.79663086 C120.74970703 167.0425293 120.05361328 166.28842773 119.33642578 165.51147461 C114.51546545 160.28876759 111.37595801 155.53349187 111.07080078 148.23413086 C111.30314186 142.53209367 113.08825083 139.15418081 117.13330078 135.10913086 C128.83472448 126.1389977 146.51809411 126.73990046 160.44580078 127.79663086 C168.0291944 128.88196059 174.42177926 131.89399687 180.54345703 136.42944336 C182.40163017 137.86515098 182.40163017 137.86515098 184.56689453 138.72631836 C186.95642322 140.08750518 187.31921037 141.31992019 188.44580078 143.79663086 C190.37314006 146.27091777 192.39178071 148.65308694 194.41845703 151.04663086 C196.44809541 153.79974342 197.40587832 156.25640957 198.63330078 159.42163086 C199.92586552 162.07348384 199.92586552 162.07348384 202.44580078 163.79663086 C208.45178391 164.9507551 214.70787735 164.19456411 220.77099609 163.86303711 C224.66920139 163.76625801 228.41216852 164.2022243 232.25830078 164.79663086 C234.06234375 165.07506836 234.06234375 165.07506836 235.90283203 165.35913086 C236.74201172 165.50350586 237.58119141 165.64788086 238.44580078 165.79663086 C238.0982373 165.15991455 237.75067383 164.52319824 237.39257812 163.8671875 C236.90225098 162.96863037 236.41192383 162.07007324 235.90673828 161.14428711 C235.35727539 160.13769043 234.8078125 159.13109375 234.24169922 158.09399414 C233.04895423 155.90405207 231.85947334 153.71232891 230.67333984 151.51879883 C228.81528348 148.0853468 226.94371748 144.65949594 225.07080078 141.23413086 C224.44947266 140.07977539 223.82814453 138.92541992 223.18798828 137.73608398 C215.67923103 124.06052713 206.86833759 112.82170965 192.88330078 105.54663086 C192.2896875 105.22936035 191.69607422 104.91208984 191.08447266 104.58520508 C179.96508593 99.12591897 167.08341935 97.3222035 154.90679932 96.0144043 C152.80504858 95.78820918 150.70527178 95.54802928 148.60546875 95.30444336 C145.67455621 94.964855 142.74325485 94.62907429 139.81152344 94.29663086 C103.08117321 90.11090584 74.26901652 83.06452298 41.7644043 65.59033203 C38.7581787 63.66203524 38.7581787 63.66203524 35.44580078 62.79663086 Z M133.44580078 149.79663086 C137.89877083 155.073712 142.5157263 160.15409998 147.25830078 165.17163086 C147.95955078 165.91533936 148.66080078 166.65904785 149.38330078 167.42529297 C154.31572333 172.64091953 159.30545579 177.78479449 164.44580078 182.79663086 C168.43292399 180.96416514 172.02664582 178.55807311 175.69580078 176.17163086 C176.34548828 175.75139648 176.99517578 175.33116211 177.66455078 174.89819336 C179.25948959 173.86617413 180.85280747 172.83165058 182.44580078 171.79663086 C178.98958037 162.23330252 171.22598272 153.83547651 162.25830078 149.12084961 C158.00700249 147.39404295 153.98121894 147.38900883 149.44580078 147.48413086 C148.67751953 147.4809082 147.90923828 147.47768555 147.11767578 147.47436523 C142.20697521 147.52029866 138.10387866 148.24187348 133.44580078 149.79663086 Z M178.44580078 199.79663086 C178.85572266 200.89620117 179.26564453 201.99577148 179.68798828 203.12866211 C185.42914404 218.77233636 189.43827179 233.5024962 183.44580078 249.79663086 C180.15944213 255.74891466 175.7094973 260.45020038 169.07080078 262.54663086 C168.53455078 262.62913086 167.99830078 262.71163086 167.44580078 262.79663086 C167.97770443 267.28917087 169.68117925 269.90247609 172.38330078 273.48413086 C173.09357422 274.43674805 173.80384766 275.38936523 174.53564453 276.37084961 C176.37356552 278.80312019 176.37356552 278.80312019 178.44580078 280.79663086 C180.90085564 281.03144015 183.24671124 281.14242041 185.70605469 281.16650391 C186.4542749 281.18125259 187.20249512 281.19600128 187.97338867 281.2111969 C190.45636634 281.25581422 192.93910798 281.28397427 195.42236328 281.30834961 C196.69544405 281.32244842 196.69544405 281.32244842 197.99424362 281.33683205 C202.49028026 281.38444734 206.98619949 281.41810824 211.48242188 281.44189453 C216.11688401 281.46955056 220.74897035 281.5486554 225.38256264 281.63943768 C228.95322984 281.69939976 232.52333822 281.71917569 236.09446335 281.72840309 C237.80175255 281.73995756 239.50901212 281.76673167 241.21580887 281.80933189 C250.70494949 282.26684295 250.70494949 282.26684295 259.2530365 278.83825684 C261.2957019 276.58302266 262.90441334 274.4134223 264.44580078 271.79663086 C265.10193359 270.76795898 265.75806641 269.73928711 266.43408203 268.67944336 C273.90555662 253.11938124 276.23536223 237.72228293 270.76220703 221.07397461 C265.07198909 206.90752699 254.92007863 194.89256014 240.78955078 188.61694336 C218.62998965 180.08924708 196.0437256 183.37190103 178.44580078 199.79663086 Z M59.44580078 301.79663086 C59.44580078 314.33663086 59.44580078 326.87663086 59.44580078 339.79663086 C65.54822266 339.87010742 65.54822266 339.87010742 71.77392578 339.94506836 C75.02064396 339.98961497 78.26732123 340.03611012 81.51399231 340.08392334 C84.93962663 340.13383764 88.36522868 340.18032897 91.79101562 340.21850586 C95.72299555 340.26248162 99.65466328 340.32211404 103.58642578 340.38256836 C105.4256662 340.39989517 105.4256662 340.39989517 107.30206299 340.41757202 C108.44294373 340.43744171 109.58382446 340.4573114 110.75927734 340.4777832 C112.26485199 340.49776871 112.26485199 340.49776871 113.80084229 340.51815796 C116.51286605 340.80369179 118.1521965 341.35135543 120.44580078 342.79663086 C122.99155869 346.23340404 122.88252954 349.64770761 122.44580078 353.79663086 C120.65017673 356.54992107 119.39325156 358.32290547 116.44580078 359.79663086 C114.62861994 359.9162056 112.80722244 359.97387766 110.98632812 360.00195312 C109.84529633 360.02189835 108.70426453 360.04184357 107.52865601 360.06239319 C106.29217316 360.07910568 105.05569031 360.09581818 103.78173828 360.11303711 C101.88822128 360.14420876 101.88822128 360.14420876 99.95645142 360.17601013 C96.59948033 360.23041012 93.24249889 360.28063322 89.88543701 360.32885742 C86.46019013 360.37908128 83.03503249 360.43476272 79.60986328 360.48999023 C72.88858017 360.59724945 66.16723034 360.69900526 59.44580078 360.79663086 C59.37570358 376.35630384 59.32280915 391.91594817 59.29036427 407.47574139 C59.27489877 414.70051542 59.25381541 421.92519131 59.21948242 429.14990234 C59.18957023 435.44734682 59.17022346 441.74472022 59.1635353 448.04223377 C59.15962607 451.3764138 59.14887023 454.71034321 59.12861061 458.04446983 C59.10688398 461.76756299 59.10383194 465.49023272 59.10522461 469.21337891 C59.09443878 470.31749115 59.08365295 471.42160339 59.07254028 472.55917358 C59.01622724 479.69664017 59.01622724 479.69664017 62.44580078 485.79663086 C66.55692445 489.50990385 70.27694504 489.92074531 75.68173695 489.92805862 C76.7478199 489.93189977 77.81390285 489.93574091 78.91229135 489.93969846 C80.08260437 489.93883198 81.2529174 489.93796549 82.45869446 489.93707275 C84.32463777 489.94152944 84.32463777 489.94152944 86.22827691 489.94607615 C89.68322048 489.95325753 93.13811433 489.95593555 96.5930618 489.95667362 C100.31845556 489.95852468 104.04383855 489.96607225 107.76922607 489.97280884 C115.91589213 489.98639013 124.06255326 489.99241645 132.20922875 489.9968195 C137.29557096 489.99958203 142.38191126 490.00381939 147.46825218 490.00832367 C161.54977582 490.02051564 175.63129793 490.03081538 189.71282673 490.03419876 C190.61404674 490.03441833 191.51526676 490.03463789 192.44379647 490.03486411 C193.34717499 490.03508239 194.25055351 490.03530067 195.18130714 490.03552556 C197.01190333 490.03596903 198.84249952 490.03641559 200.6730957 490.03686523 C201.58113503 490.03708666 202.48917436 490.03730809 203.42473003 490.03753623 C218.14081712 490.04148492 232.85685471 490.05894143 247.57292268 490.08222476 C262.68022088 490.10593426 277.78749423 490.11840041 292.89481133 490.11956668 C301.3776333 490.12048362 309.86039076 490.12624079 318.34319496 490.14438629 C325.56586378 490.1597818 332.78844815 490.16491097 340.01113025 490.15664819 C343.69604877 490.15273984 347.38079719 490.1536802 351.06569481 490.16770554 C355.06123831 490.18277417 359.05639807 490.17458357 363.05195618 490.16412354 C364.21557704 490.17217994 365.3791979 490.18023634 366.57808 490.18853688 C373.45796436 490.14631963 378.77596972 489.73249571 384.32080078 485.29663086 C386.56237022 482.30787161 386.56980053 479.46439003 386.5660553 475.88020325 C386.56742996 474.86638077 386.56880463 473.85255829 386.57022095 472.80801392 C386.56662567 471.69671112 386.5630304 470.58540833 386.55932617 469.44042969 C386.55954521 467.68412987 386.55954521 467.68412987 386.55976868 465.89234924 C386.55919103 462.68186809 386.55417276 459.47143043 386.54719472 456.26095796 C386.54094709 452.90571929 386.54035626 449.55047979 386.53916931 446.19523621 C386.53606016 439.84170333 386.52785236 433.48818764 386.51781982 427.13466233 C386.50664579 419.90135913 386.50114498 412.66805511 386.49612439 405.43474543 C386.48566942 390.55536433 386.46807801 375.67599931 386.44580078 360.79663086 C385.00709232 360.79304833 385.00709232 360.79304833 383.53931904 360.78939342 C360.21265503 360.73062628 336.88609455 360.65476073 313.55954456 360.56091595 C302.27904506 360.51593028 290.99857733 360.476522 279.71801758 360.45019531 C269.88708707 360.42723769 260.05625687 360.39386471 250.22540587 360.3479293 C245.01895159 360.32396694 239.81259683 360.3052579 234.60608864 360.29901695 C229.70674582 360.29297974 224.80765774 360.27302929 219.90840912 360.24235535 C218.10930079 360.23355323 216.31015919 360.22985702 214.5110302 360.2316227 C212.05582998 360.23327162 209.60140985 360.21660929 207.14631653 360.19535828 C206.4332734 360.20020585 205.72023028 360.20505343 204.98557979 360.2100479 C200.65041791 360.14806011 197.89834681 359.45101347 194.44580078 356.79663086 C192.72209304 353.34921539 192.94273406 349.56627747 193.44580078 345.79663086 C195.32200691 343.29502268 196.68471381 342.17717434 199.44580078 340.79663086 C201.90134993 340.68910063 204.32929641 340.64174102 206.78555298 340.63841248 C207.55088612 340.6334745 208.31621926 340.62853652 209.10474432 340.62344891 C211.68278301 340.60802626 214.26079671 340.59970043 216.83886719 340.59130859 C218.68150555 340.58173381 220.5241417 340.57172397 222.36677551 340.56130981 C227.38094585 340.53421134 232.39512564 340.51322858 237.40932894 340.49330783 C242.64508582 340.4714787 247.88081338 340.44407501 253.11654663 340.41725159 C263.03647644 340.36728305 272.9564225 340.32235969 282.87638414 340.27922922 C294.16764979 340.22989236 305.45888604 340.17496109 316.75012326 340.11954963 C339.98198971 340.00566572 363.21388312 339.89957928 386.44580078 339.79663086 C386.44580078 327.25663086 386.44580078 314.71663086 386.44580078 301.79663086 C278.53580078 301.79663086 170.62580078 301.79663086 59.44580078 301.79663086 Z " fill="#000000" transform="translate(96.55419921875,2.203369140625)"/>
<path d="M0 0 C0.80193527 -0.00367669 1.60387054 -0.00735338 2.43010688 -0.01114148 C5.1323457 -0.02220386 7.8345461 -0.02602647 10.5368042 -0.02983093 C12.46822737 -0.03609366 14.39964932 -0.04274029 16.33106995 -0.04974365 C21.58944694 -0.06717118 26.84781483 -0.0777102 32.10621357 -0.08594918 C35.38979819 -0.09109564 38.67337997 -0.09717153 41.95696259 -0.10346031 C52.22562244 -0.1225173 62.49427508 -0.13674734 72.76294923 -0.14507228 C84.62545973 -0.15484748 96.48778377 -0.18117234 108.35022855 -0.22157317 C117.51292114 -0.25171079 126.67556022 -0.26653892 135.83830142 -0.26985329 C141.31366409 -0.27220648 146.78882767 -0.28120178 152.26413727 -0.30631447 C157.41546886 -0.32955894 162.56646979 -0.33384297 167.71784019 -0.32355309 C169.6084751 -0.32305673 171.49912607 -0.32940641 173.38971138 -0.34310913 C175.97154969 -0.36077471 178.55219447 -0.35374857 181.1340332 -0.34057617 C182.25554649 -0.35703004 182.25554649 -0.35703004 183.39971662 -0.37381631 C188.49189787 -0.31112032 191.40280753 0.92989324 195.32098389 4.14717102 C196.6470826 6.79936845 196.4700432 8.83257872 196.49798584 11.8026886 C196.51723869 13.58012199 196.51723869 13.58012199 196.53688049 15.39346313 C196.54426743 16.67988205 196.55165436 17.96630096 196.55926514 19.29170227 C196.56733688 20.6087767 196.57540863 21.92585114 196.58372498 23.28283691 C196.59875249 26.07460909 196.60859001 28.86635581 196.6161499 31.65815735 C196.62720765 35.22940406 196.66159945 38.80002652 196.7013216 42.37105274 C196.73379767 45.78207757 196.73826757 49.19303477 196.74676514 52.60420227 C196.76427322 53.88454849 196.78178131 55.16489471 196.79981995 56.48403931 C196.79543159 58.27565742 196.79543159 58.27565742 196.79095459 60.10346985 C196.79682083 61.15222794 196.80268707 62.20098602 196.80873108 63.28152466 C196.19695387 66.87588083 194.81932697 68.54255572 192.32098389 71.14717102 C189.22557083 72.69487755 185.95690587 72.29516078 182.55931091 72.29434204 C181.74850297 72.29801873 180.93769503 72.30169542 180.10231715 72.30548352 C177.37010536 72.31654621 174.63793156 72.32036855 171.90570068 72.32417297 C169.95295083 72.33043562 168.00020217 72.33708224 166.04745483 72.34408569 C160.73129554 72.36151276 155.41514525 72.37205189 150.09896445 72.38029122 C146.77987558 72.38543727 143.46078953 72.39151315 140.14170265 72.39780235 C129.76358796 72.41685833 119.38548041 72.43108917 109.00735158 72.43941432 C97.01522086 72.44919225 85.02327445 72.47552462 73.03120869 72.51591522 C63.77001876 72.54604093 54.50888177 72.56087979 45.24764377 72.56419533 C39.7125102 72.56654968 34.17757344 72.57556019 28.64249229 72.60065651 C23.43617283 72.62388052 18.23018055 72.62819332 13.02382278 72.61789513 C11.11180472 72.61739829 9.19977086 72.62376212 7.28780174 72.63745117 C4.67934194 72.65508352 2.07206739 72.64810709 -0.53639221 72.63491821 C-1.29476248 72.64588746 -2.05313274 72.6568567 -2.83448392 72.66815835 C-7.72928712 72.60831973 -10.24933287 71.6452109 -13.67901611 68.14717102 C-15.00387717 65.49744891 -14.83541704 63.45900271 -14.87188721 60.49165344 C-14.88795013 59.30669785 -14.90401306 58.12174225 -14.92056274 56.90087891 C-14.96491574 51.47930871 -15.00651701 46.05788426 -15.02911377 40.63618469 C-15.04244989 37.77355469 -15.07029491 34.91163811 -15.11114502 32.04927063 C-15.16993976 27.9294378 -15.18777292 23.81037025 -15.20245361 19.69013977 C-15.23645767 17.76962044 -15.23645767 17.76962044 -15.27114868 15.81030273 C-15.24758179 5.93373322 -15.24758179 5.93373322 -12.27130127 2.86323547 C-8.0249475 0.05219567 -4.9802879 -0.00121356 0 0 Z M6.32098389 21.14717102 C6.32098389 31.04717102 6.32098389 40.94717102 6.32098389 51.14717102 C62.09098389 51.14717102 117.86098389 51.14717102 175.32098389 51.14717102 C175.32098389 41.24717102 175.32098389 31.34717102 175.32098389 21.14717102 C119.55098389 21.14717102 63.78098389 21.14717102 6.32098389 21.14717102 Z " fill="#000000" transform="translate(228.67901611328125,390.8528289794922)"/>
<path d="M0 0 C2.97239241 1.78476241 5.42604027 3.85208055 7 7 C7.67660495 12.86390959 7.67660495 12.86390959 5.953125 15.7578125 C4.16405507 17.93626824 2.54084375 19.72957812 0 21 C-4.97067782 21.3751455 -8.05151502 21.15878799 -12 18 C-14.56632517 14.57823311 -14.36435051 11.15359579 -14 7 C-12.74544028 4.17724064 -11.71615278 2.53711459 -9.25 0.6875 C-5.9260257 -0.32815881 -3.46313738 -0.41796486 0 0 Z " fill="#000000" transform="translate(258,342)"/>
</svg>
