<?xml version="1.0" encoding="UTF-8"?>
<svg version="1.1" xmlns="http://www.w3.org/2000/svg" width="512" height="512">
<path d="M0 0 C2.1665087 1.04469995 4.3059993 2.14893125 6.40234375 3.328125 C10.04875244 4.9234288 12.45487603 5.06737827 16.40234375 4.640625 C19.23040488 3.37082717 19.23040488 3.37082717 21.90234375 1.640625 C29.04115141 -2.10724902 35.47284777 -2.66975781 43.40234375 -1.359375 C46.71421952 -0.02542504 49.71614828 1.53518901 52.8203125 3.29296875 C56.25554618 5.08594245 58.59877066 5.31184378 62.40234375 4.640625 C63.49546875 4.145625 64.58859375 3.650625 65.71484375 3.140625 C70.42463606 1.22477728 74.38371635 0.77106085 79.40234375 1.640625 C83.09150867 3.3771566 85.06844502 6.12864694 87.27734375 9.515625 C92.0168589 22.87244042 86.8223651 37.2129494 81.13525391 49.34326172 C76.47602344 58.84609862 71.42195746 67.93030699 65.40234375 76.640625 C67.22435259 80.32035888 69.22927833 83.86593596 71.28125 87.421875 C72.85425163 90.53499322 73.55558254 92.597935 73.04296875 96.0859375 C72.57665028 99.28488219 72.57218313 101.50026993 73.40234375 104.640625 C76.71303191 108.11846517 80.4952477 110.6117042 84.46777344 113.27685547 C87.87732708 115.68041007 91.00217585 118.41116223 94.15234375 121.140625 C94.76029785 121.6574585 95.36825195 122.17429199 95.99462891 122.70678711 C101.27298115 127.24350894 101.27298115 127.24350894 101.71484375 132.015625 C101.40234375 135.640625 101.40234375 135.640625 99.90234375 138.078125 C97.1276567 139.8123044 94.94709585 140.51763339 91.65234375 140.3359375 C86.08203758 138.61455816 81.81474907 133.10177336 77.83154297 129.03808594 C72.27046599 123.39437327 72.27046599 123.39437327 65.40234375 119.640625 C61.13486017 120.26927581 58.10194269 121.73444176 54.328125 123.72265625 C50.2564826 125.86091194 46.29652286 126.74156669 41.77734375 127.453125 C41.05611328 127.56712646 40.33488281 127.68112793 39.59179688 127.79858398 C14.93155393 131.45891349 -17.45851523 132.95721115 -40.6796875 122.21484375 C-43.76661475 121.26450868 -43.76661475 121.26450868 -46.67578125 123.53515625 C-47.75164748 124.48722647 -48.80817393 125.46145855 -49.84765625 126.453125 C-50.41121826 126.96069336 -50.97478027 127.46826172 -51.55541992 127.99121094 C-53.2521639 129.5244972 -54.92454575 131.0816476 -56.59765625 132.640625 C-58.36664644 134.22601733 -60.13729009 135.80956816 -61.91015625 137.390625 C-62.71324219 138.12152344 -63.51632813 138.85242188 -64.34375 139.60546875 C-66.35864664 141.42481216 -68.40660506 143.19252696 -70.47265625 144.953125 C-78.84159567 152.27383362 -86.50514806 160.18255562 -93.40625 168.8984375 C-94.85938731 170.71680184 -96.35188335 172.50444065 -97.8828125 174.2578125 C-132.27118312 213.73454365 -148.46422007 261.7430805 -147.59765625 313.640625 C-146.79328125 313.75277344 -146.79328125 313.75277344 -145.97265625 313.8671875 C-128.73779969 316.75856146 -113.25502657 325.42665621 -98.328125 334.109375 C-87.5958254 340.35117268 -77.2360821 345.10899101 -64.859375 347.0234375 C-64.06546356 347.14734863 -63.27155212 347.27125977 -62.45358276 347.39892578 C-46.19201671 349.8308125 -29.78523568 351.38248719 -13.44189453 353.16113281 C-9.54184493 353.58601492 -5.64269491 354.01850031 -1.74396896 354.45535278 C-0.28134351 354.61769926 1.18160034 354.77720802 2.64487839 354.93356323 C20.89044641 356.88379572 36.52627079 359.6081517 49.40234375 373.640625 C56.03552659 382.78743502 59.2302108 391.72373559 59.96484375 402.953125 C60.09052734 404.83451172 60.09052734 404.83451172 60.21875 406.75390625 C60.27933594 407.70652344 60.33992188 408.65914063 60.40234375 409.640625 C61.33876709 409.21990723 62.27519043 408.79918945 63.23999023 408.36572266 C84.04564684 399.02190274 104.88500676 389.75978013 125.78100586 380.61962891 C127.41911316 379.9026809 129.05721554 379.18572164 130.6953125 378.46875 C131.46644882 378.13173065 132.23758514 377.7947113 133.03208923 377.44747925 C138.20741441 375.18059166 143.34961051 372.85012368 148.4621582 370.44433594 C150.40234375 369.640625 150.40234375 369.640625 152.40234375 369.640625 C152.64339844 368.97804688 152.88445312 368.31546875 153.1328125 367.6328125 C154.42094616 364.59678056 155.92537296 361.79831107 157.52490234 358.91943359 C175.54197931 326.30830249 175.88917153 288.63661438 166.20458984 253.35205078 C162.10537604 239.4975564 156.25302099 226.33412638 149.40234375 213.640625 C148.78875 212.485625 148.17515625 211.330625 147.54296875 210.140625 C139.31961052 195.18906458 129.05184616 181.60431537 117.8828125 168.73828125 C117.06425781 167.77792969 116.24570312 166.81757813 115.40234375 165.828125 C114.65984375 164.97605469 113.91734375 164.12398437 113.15234375 163.24609375 C111.15320362 160.26969538 110.61211337 158.20183013 110.40234375 154.640625 C112.53277853 150.07540761 112.53277853 150.07540761 115.40234375 148.640625 C118.45022173 148.06007681 120.50519597 148.08506084 123.1875 149.74609375 C139.49755439 163.30989668 152.14808701 183.29729919 162.40234375 201.640625 C162.80549805 202.3526709 163.20865234 203.0647168 163.62402344 203.79833984 C186.86773886 245.14928478 196.72609266 294.07557319 183.96484375 340.453125 C182.24393036 346.42413343 180.18716156 352.07098939 177.40234375 357.640625 C178.90861328 357.00833984 178.90861328 357.00833984 180.4453125 356.36328125 C191.64813426 351.81136019 202.35958517 348.3932487 214.265625 352.70703125 C221.55333163 355.89123945 227.84125258 361.72894331 231.54296875 368.828125 C235.35827186 378.70302718 235.179217 387.7866775 231.40234375 397.640625 C226.56675914 406.16883786 218.81888507 411.65126676 210.52734375 416.515625 C202.91948956 421.07166394 195.4240655 425.78274887 187.96484375 430.578125 C185.81777452 431.95713431 183.67063975 433.33604157 181.5234375 434.71484375 C179.96858643 435.71330322 179.96858643 435.71330322 178.38232422 436.73193359 C174.10853376 439.46931634 169.82045276 442.18366886 165.52734375 444.890625 C164.76470215 445.37152588 164.00206055 445.85242676 163.21630859 446.34790039 C161.70017842 447.30345414 160.18390395 448.25877897 158.66748047 449.21386719 C154.8068728 451.64557566 150.94805848 454.08012195 147.08984375 456.515625 C145.92509521 457.25087402 145.92509521 457.25087402 144.73681641 458.00097656 C138.6166509 461.8672674 132.50822458 465.75182377 126.40234375 469.640625 C117.22869601 475.48152132 108.05161695 481.3161708 98.84130859 487.09912109 C96.24420466 488.74057397 93.66122157 490.4030097 91.078125 492.06640625 C72.69939046 503.81034985 55.66903039 511.12629105 33.43652344 511.04467773 C32.0927423 511.05039857 30.74896601 511.05736935 29.40519714 511.06547546 C25.79536489 511.08323758 22.18577795 511.08227038 18.57591534 511.07653308 C15.54226234 511.07341504 12.50865473 511.07956272 9.47500825 511.08557183 C2.30605339 511.09956116 -4.86278217 511.09810393 -12.03173828 511.08666992 C-19.38050692 511.07520671 -26.72890982 511.08924677 -34.07763028 511.1160664 C-40.42887445 511.13836144 -46.78000499 511.14482962 -53.13128543 511.13898998 C-56.90606628 511.13565042 -60.68061318 511.13783136 -64.45536041 511.15524101 C-94.68520822 511.28088061 -94.68520822 511.28088061 -108.59765625 506.640625 C-110.30018555 506.08487541 -110.30018555 506.08487541 -112.03710938 505.51789856 C-115.33490205 504.38083655 -118.58649974 503.16053998 -121.83984375 501.90234375 C-123.01370636 501.45848831 -124.18756897 501.01463287 -125.39700317 500.55732727 C-129.09275032 499.15751702 -132.78278065 497.74332995 -136.47265625 496.328125 C-138.93191184 495.39288084 -141.39154543 494.45863001 -143.8515625 493.52539062 C-147.44026009 492.16351712 -151.02857165 490.80070361 -154.61517334 489.43331909 C-164.24892275 485.76096193 -173.91214879 482.17396143 -183.59765625 478.640625 C-183.72739334 479.25890671 -183.85713043 479.87718842 -183.99079895 480.51420593 C-184.25215889 481.73053459 -184.25215889 481.73053459 -184.51879883 482.97143555 C-184.68978592 483.77534225 -184.86077301 484.57924896 -185.03694153 485.40751648 C-186.29731649 490.42709944 -189.340434 494.87092376 -193.40625 498.05859375 C-197.76072596 500.65255039 -201.74464766 501.74796123 -206.74853516 501.81762695 C-207.5568277 501.83046219 -208.36512024 501.84329742 -209.19790649 501.85652161 C-210.49793106 501.86760201 -210.49793106 501.86760201 -211.82421875 501.87890625 C-212.72707611 501.886978 -213.62993347 501.89504974 -214.56015015 501.90336609 C-216.47155857 501.91718402 -218.38299144 501.9279164 -220.29443359 501.93579102 C-222.23591414 501.94728386 -224.17736376 501.9676927 -226.11865234 501.99731445 C-249.2744886 502.35043208 -249.2744886 502.35043208 -256.47705078 495.9777832 C-262.24288369 490.10443947 -263.97170846 482.89242347 -263.97860718 474.86769104 C-263.98328715 474.12808276 -263.98796712 473.38847447 -263.99278891 472.62645382 C-264.00466741 470.17078504 -263.99531009 467.71568177 -263.98583984 465.26000977 C-263.98990877 463.49020057 -263.99525245 461.72039391 -264.00177002 459.95059204 C-264.01541225 455.15922826 -264.01015748 450.36805892 -264.00063276 445.57669187 C-263.99301894 440.55339628 -264.00008667 435.53011695 -264.00479126 430.50682068 C-264.0102443 422.07116722 -264.00306957 413.63559264 -263.98876953 405.19995117 C-263.9724492 395.46033259 -263.97772889 385.72090249 -263.99424875 375.98128849 C-264.0078828 367.60651719 -264.00977373 359.23180248 -264.00193274 350.85702366 C-263.9972661 345.86069619 -263.99660347 340.86445717 -264.00654221 335.86813545 C-264.01523735 331.16897047 -264.00914353 326.47004734 -263.99185944 321.77090836 C-263.98790795 320.05086226 -263.9890056 318.33079564 -263.99564743 316.61075783 C-264.06126201 297.88551372 -264.06126201 297.88551372 -258.41015625 289.328125 C-251.88577313 283.09371446 -245.62861327 282.03518015 -236.81640625 282.109375 C-235.80348511 282.1055481 -234.79056396 282.10172119 -233.74694824 282.09777832 C-231.6156311 282.09506891 -229.48428016 282.10236165 -227.35302734 282.11914062 C-224.10698698 282.14056342 -220.86315974 282.11930497 -217.6171875 282.09375 C-215.53775557 282.09639345 -213.45832502 282.10151877 -211.37890625 282.109375 C-210.41722534 282.10127808 -209.45554443 282.09318115 -208.46472168 282.08483887 C-201.37756726 282.18254751 -196.00040083 283.70427977 -190.57421875 288.38671875 C-185.13733122 295.19068494 -184.29521946 299.98757249 -184.59765625 308.640625 C-183.83582031 308.62902344 -183.07398438 308.61742187 -182.2890625 308.60546875 C-175.95925303 308.55015206 -169.87210076 308.8040324 -163.59765625 309.640625 C-163.69304687 308.75246094 -163.7884375 307.86429687 -163.88671875 306.94921875 C-168.44825993 254.38541282 -144.01858092 203.52309149 -111.59765625 163.640625 C-109.40236451 161.10648692 -107.17449359 158.61401995 -104.8984375 156.15234375 C-103.01707866 154.0985004 -101.19282594 152.01558457 -99.375 149.90625 C-95.37626399 145.3256463 -91.14841646 140.99930701 -86.84765625 136.703125 C-86.05343262 135.90970703 -85.25920898 135.11628906 -84.44091797 134.29882812 C-78.75140163 128.66839656 -72.91326337 123.55905745 -66.59765625 118.640625 C-64.35579133 116.80157934 -62.13252331 114.94065537 -59.91015625 113.078125 C-58.88551185 112.22254225 -57.86078133 111.36706262 -56.8359375 110.51171875 C-56.09730469 109.89425781 -55.35867187 109.27679688 -54.59765625 108.640625 C-73.82071591 109.87669757 -93.48533087 113.32861457 -107.03515625 128.265625 C-109.08420155 130.68722399 -110.85967991 133.04184873 -112.59765625 135.703125 C-114.8681352 137.90265149 -115.54486152 138.02354884 -118.59765625 138.203125 C-121.46877827 137.9995753 -122.58777632 137.64679995 -125.09765625 136.078125 C-127.30221119 132.49572323 -127.33861642 130.81694596 -126.59765625 126.640625 C-118.33434121 111.52361925 -103.73747984 101.88888932 -87.59765625 96.640625 C-76.76825164 93.65150157 -65.74838656 91.89055937 -54.59765625 90.640625 C-62.0348226 83.39686013 -69.54412313 77.78988585 -80.2980957 77.59057617 C-81.2593335 77.62127197 -82.22057129 77.65196777 -83.2109375 77.68359375 C-101.74574935 78.10433453 -120.19850624 77.22482753 -135.45703125 65.171875 C-137.2050696 62.82519339 -137.06799704 60.41642687 -136.9375 57.58203125 C-136.59765625 55.640625 -136.59765625 55.640625 -135.09765625 53.140625 C-131.42371421 50.93625977 -128.67680434 50.67897684 -124.59765625 51.640625 C-121.03799356 53.25484188 -117.67139727 55.00935274 -114.2578125 56.9140625 C-106.41118516 60.90465758 -98.53071162 60.81579644 -89.91015625 60.578125 C-74.35821768 60.38505828 -60.58611585 62.10088523 -48.66015625 72.953125 C-47.94988281 73.65050781 -47.23960937 74.34789063 -46.5078125 75.06640625 C-44.62434668 76.9586169 -44.62434668 76.9586169 -41.59765625 76.640625 C-41.92636719 76.04378906 -42.25507813 75.44695312 -42.59375 74.83203125 C-43.63022526 72.94165767 -44.66077168 71.0480289 -45.6875 69.15234375 C-47.0398549 66.66611256 -48.40707119 64.19217535 -49.7890625 61.72265625 C-57.79218694 47.23797223 -67.31622233 29.00491453 -62.9140625 12 C-60.90164562 6.95643239 -58.73476944 3.86993827 -53.59765625 1.640625 C-47.41933523 0.67103448 -43.26753974 2.12067678 -37.59765625 4.640625 C-32.36664857 5.563744 -29.54942465 4.1615059 -25.09765625 1.640625 C-16.95095577 -2.63105316 -8.67259246 -3.27694047 0 0 Z M-16.85351562 16.13110352 C-27.52970452 21.21705295 -36.1590212 22.16020501 -47.59765625 18.640625 C-47.21936586 33.87541083 -39.1355746 47.28043489 -31.89648438 60.28125 C-30.79724278 62.27806781 -29.7629049 64.29275521 -28.73828125 66.328125 C-26.59778259 70.01999426 -24.81766337 72.82308423 -20.67773438 74.34765625 C-15.38501554 75.73575557 -10.03729489 76.21736058 -4.59765625 76.640625 C-3.52128906 76.76566406 -2.44492187 76.89070313 -1.3359375 77.01953125 C9.2003793 78.20693357 19.19077723 77.47947529 29.62597656 75.82348633 C30.99061035 75.60728638 30.99061035 75.60728638 32.3828125 75.38671875 C33.68871338 75.17958252 33.68871338 75.17958252 35.02099609 74.96826172 C37.40234375 74.640625 37.40234375 74.640625 40.890625 74.48828125 C43.87678537 74.31510929 45.75489576 74.04622883 48.40234375 72.640625 C51.63080533 68.94247085 53.97222181 64.99378589 56.29199219 60.68310547 C57.40901375 58.6283556 58.5857511 56.62089645 59.78515625 54.61328125 C66.38388752 43.44972974 72.65715995 31.89106733 72.40234375 18.640625 C71.32984375 18.970625 70.25734375 19.300625 69.15234375 19.640625 C59.23603212 22.01495314 51.95996296 21.15337728 43.09375 16.05078125 C40.42172487 14.65077969 38.39399508 13.93830175 35.40234375 13.640625 C32.23618174 14.79749189 29.36007861 16.11480978 26.41015625 17.734375 C19.11468714 21.47564121 11.48533881 22.07196289 3.55859375 19.83984375 C1.10072774 18.88112794 -1.24298002 17.82860813 -3.59765625 16.640625 C-4.75265625 16.063125 -5.90765625 15.485625 -7.09765625 14.890625 C-7.92265625 14.478125 -8.74765625 14.065625 -9.59765625 13.640625 C-12.38843243 13.640625 -14.3867653 14.93752445 -16.85351562 16.13110352 Z M-35.59765625 91.140625 C-38.31223717 95.03305798 -38.26031448 98.00201737 -37.59765625 102.640625 C-35.47610278 106.14854014 -34.09252238 107.4503803 -30.234375 108.93359375 C-28.92328399 109.25433563 -27.60623227 109.55137034 -26.28515625 109.828125 C-25.57294922 109.98829102 -24.86074219 110.14845703 -24.12695312 110.31347656 C-21.95539038 110.78568086 -19.77977436 111.22015209 -17.59765625 111.640625 C-16.42847656 111.86878906 -15.25929687 112.09695312 -14.0546875 112.33203125 C4.6809092 115.35936495 23.83535109 114.13754738 42.40234375 110.640625 C44.18898438 110.31578125 44.18898438 110.31578125 46.01171875 109.984375 C50.50014125 108.98694778 52.82090836 108.20884595 56.15234375 104.953125 C57.73011972 100.77201869 57.88438971 97.86142256 56.40234375 93.640625 C54.44294255 90.5142137 54.44294255 90.5142137 51.40234375 88.640625 C46.33949219 88.30104349 41.70770814 89.05855973 36.77734375 90.078125 C17.1428462 93.76991466 -2.81385592 93.2660979 -22.33398438 89.08520508 C-27.64802254 88.0415399 -31.16838928 87.44956919 -35.59765625 91.140625 Z M-246.59765625 300.640625 C-247.77315962 304.16713512 -247.73554579 306.96361875 -247.7515564 310.68734741 C-247.75593865 311.40917163 -247.7603209 312.13099584 -247.76483595 312.87469351 C-247.77821866 315.29976576 -247.78440155 317.72480167 -247.79052734 320.14990234 C-247.79842856 321.88605412 -247.80669752 323.62220426 -247.81530762 325.35835266 C-247.8415196 331.06440667 -247.85683176 336.77046799 -247.87109375 342.4765625 C-247.87645326 344.43996816 -247.88183077 346.40337377 -247.8872261 348.36677933 C-247.90885122 356.53176678 -247.92758944 364.69675225 -247.9388485 372.86176109 C-247.95509886 384.56974306 -247.9883072 396.27739376 -248.04524934 407.98525083 C-248.0839122 416.21462081 -248.10347669 424.44390203 -248.10876906 432.67336047 C-248.11242677 437.59038821 -248.12449291 442.50706257 -248.1568718 447.42399216 C-248.18688915 452.04846247 -248.19328703 456.67236436 -248.18148804 461.29691124 C-248.18126679 462.9944705 -248.18961426 464.69205567 -248.20714188 466.38952446 C-248.22977011 468.70701568 -248.22157063 471.02243445 -248.20565796 473.3399353 C-248.20896811 474.63668875 -248.21227825 475.93344219 -248.21568871 477.2694912 C-247.43223723 481.54292334 -246.0044857 483.02025057 -242.59765625 485.640625 C-239.58431638 486.10364994 -237.15583272 486.27521186 -234.15625 486.19921875 C-233.35155777 486.19688736 -232.54686554 486.19455597 -231.7177887 486.19215393 C-230.02244412 486.18244005 -228.32713087 486.16070706 -226.63208008 486.12768555 C-224.04003759 486.07821816 -221.44989417 486.06619925 -218.85742188 486.06054688 C-217.2070111 486.04646168 -215.55661676 486.03025755 -213.90625 486.01171875 C-213.13325058 486.00635605 -212.36025116 486.00099335 -211.56382751 485.99546814 C-206.26526085 485.89062382 -206.26526085 485.89062382 -201.59765625 483.640625 C-200.44728561 481.33988372 -200.46823299 480.03775905 -200.45962524 477.47879028 C-200.45417191 476.60674957 -200.44871857 475.73470886 -200.44309998 474.83624268 C-200.44153648 473.39773956 -200.44153648 473.39773956 -200.43994141 471.93017578 C-200.43486069 470.92193756 -200.42977997 469.91369934 -200.42454529 468.87490845 C-200.4138264 466.68029786 -200.40521221 464.48567623 -200.39842606 462.29104996 C-200.38666482 458.82002237 -200.36721954 455.34912078 -200.3453064 451.87814331 C-200.28359384 442.0075091 -200.22960691 432.13688735 -200.19628906 422.26611328 C-200.17537584 416.23368437 -200.14009894 410.20148414 -200.09553146 404.16918564 C-200.08134391 401.86708132 -200.07264284 399.56493654 -200.06947708 397.26279068 C-200.06458352 394.04490384 -200.04146517 390.8276268 -200.01416016 387.60986328 C-200.01716629 386.65490967 -200.02017242 385.69995605 -200.02326965 384.71606445 C-199.94186987 378.27568966 -199.94186987 378.27568966 -198.19271851 375.04855347 C-196.21180103 373.30003858 -195.21661846 373.12872266 -192.59765625 373.203125 C-191.57671875 373.20505859 -191.57671875 373.20505859 -190.53515625 373.20703125 C-187.88279278 373.80060453 -187.18757135 374.40590209 -185.59765625 376.640625 C-185.28801119 379.39728486 -185.1601718 381.93294851 -185.1652832 384.69213867 C-185.14999573 385.92174568 -185.14999573 385.92174568 -185.13439941 387.17619324 C-185.10419311 389.88706224 -185.09499193 392.59757835 -185.0859375 395.30859375 C-185.06909646 397.18761883 -185.050947 399.0666326 -185.03153992 400.94563293 C-184.98397134 405.89232857 -184.95420638 410.83897838 -184.92810059 415.78582764 C-184.89832962 420.83322198 -184.85178743 425.88045829 -184.80664062 430.92773438 C-184.72052952 440.83194871 -184.653219 450.73619549 -184.59765625 460.640625 C-156.91400608 471.26098285 -156.91400608 471.26098285 -129.1484375 481.66479492 C-126.27025272 482.73182071 -123.39495623 483.80642173 -120.51953125 484.88085938 C-102.81919865 491.46311651 -87.16512074 495.79450033 -68.13793945 495.78588867 C-67.0501268 495.78924728 -65.96231415 495.7926059 -64.84153748 495.79606628 C-61.27715891 495.80549544 -57.71282773 495.80751538 -54.1484375 495.80859375 C-51.64658083 495.81181208 -49.14472433 495.81517658 -46.64286804 495.81867981 C-41.40879887 495.82465114 -36.17474616 495.82652178 -30.94067383 495.82592773 C-24.27143072 495.82526229 -17.60231036 495.83947152 -10.93308735 495.85669994 C-5.7674258 495.86788118 -0.60178958 495.86984506 4.56388283 495.86931801 C7.02077413 495.87048917 9.47766628 495.87486177 11.93454552 495.88265038 C43.91988938 495.97455316 65.55999175 489.64119911 92.17236328 472.09814453 C95.94950722 469.62939598 99.76998518 467.23004189 103.58984375 464.828125 C110.5395612 460.45131816 117.47568243 456.05383214 124.40234375 451.640625 C135.15512755 444.79172409 145.93239801 437.98216106 156.71582031 431.18164062 C168.75021267 423.59110599 180.77074387 415.97928779 192.76171875 408.3203125 C195.31251919 406.69776193 197.87182426 405.08953436 200.43359375 403.484375 C201.96496504 402.51581674 203.49622177 401.54707733 205.02734375 400.578125 C206.06592529 399.93508423 206.06592529 399.93508423 207.12548828 399.27905273 C212.46283213 395.87993677 216.77912119 391.98594956 218.40234375 385.640625 C218.17528773 378.48836023 216.22635259 374.46463384 211.08984375 369.328125 C207.24797276 366.9157874 204.02267804 366.13496407 199.49072266 367.00952148 C190.30238121 369.65996491 181.6800332 373.75684061 172.96484375 377.640625 C171.14738382 378.4452228 169.32967011 379.24924755 167.51171875 380.05273438 C163.71359354 381.73250956 159.91697173 383.41561577 156.12158203 385.1015625 C150.61265302 387.54836579 145.09997789 389.98661577 139.5859375 392.421875 C138.70273834 392.81196747 137.81953918 393.20205994 136.90957642 393.60397339 C135.12926361 394.39028482 133.34893933 395.17657027 131.56860352 395.96282959 C128.90031892 397.14151945 126.23233795 398.32089387 123.56445312 399.50048828 C111.59729905 404.79136084 99.62572951 410.07211394 87.64697266 415.33666992 C85.88719449 416.11019702 84.1275858 416.88410981 82.36816406 417.65844727 C79.92303874 418.73440662 77.47723891 419.80881806 75.03125 420.8828125 C74.33298599 421.19036469 73.63472198 421.49791687 72.91529846 421.81478882 C71.51153038 422.43031985 70.10262815 423.03424787 68.68934631 423.62760925 C66.34255155 424.63250798 66.34255155 424.63250798 63.93357849 425.9667511 C54.05115435 430.88629826 44.20279568 430.31339091 33.4296875 430.19921875 C31.41378588 430.19496149 29.39787933 430.19263927 27.38197327 430.19215393 C23.18190909 430.18602152 18.98238517 430.16346846 14.7824707 430.12768555 C9.39546807 430.08215265 4.00894914 430.06764371 -1.37822819 430.06394863 C-5.52944206 430.05952745 -9.68055432 430.04424099 -13.83172417 430.0250721 C-15.81928105 430.01619147 -17.80684873 430.0094607 -19.79442024 430.00491142 C-22.56113214 429.99589208 -25.32740161 429.97352866 -28.09399414 429.94702148 C-28.91527298 429.94635681 -29.73655182 429.94569214 -30.5827179 429.94500732 C-34.43754279 429.8939058 -36.31568102 429.82860849 -39.59765625 427.640625 C-40.46879069 423.72052001 -40.9763754 420.47040042 -39.59765625 416.640625 C-35.7477503 415.40538816 -31.89179997 415.46708808 -27.89160156 415.43530273 C-26.73492729 415.42045334 -26.73492729 415.42045334 -25.55488586 415.40530396 C-23.01188198 415.37377422 -20.46885943 415.34896532 -17.92578125 415.32421875 C-16.16029379 415.30364186 -14.39481118 415.28264519 -12.6293335 415.26124573 C-7.98679534 415.20610101 -3.34421327 415.15665825 1.29840088 415.10839844 C6.03751524 415.05812789 10.776566 415.00247083 15.515625 414.94726562 C24.81114355 414.83977702 34.10671738 414.73831144 43.40234375 414.640625 C43.44471525 411.92301145 43.47561587 409.20606691 43.5 406.48828125 C43.51309204 405.7240686 43.52618408 404.95985596 43.53967285 404.17248535 C43.6000274 395.19414303 40.97254844 388.09728212 34.64428711 381.58007812 C26.91549831 374.89408245 17.80827103 372.68535241 7.90234375 371.703125 C5.93603652 371.4745987 3.96973075 371.24605975 2.00344849 371.01731873 C-1.21248021 370.64984194 -4.43078802 370.30536003 -7.64904785 369.95898438 C-16.90481546 368.95964503 -26.15737782 367.93183254 -35.40768814 366.8832922 C-40.04917642 366.35858808 -44.6930245 365.85957531 -49.33789062 365.36547852 C-65.61922352 363.57814879 -81.2403215 361.39036696 -96.03515625 353.953125 C-96.7214209 353.62062744 -97.40768555 353.28812988 -98.11474609 352.94555664 C-104.19966986 349.94989128 -110.09575201 346.62124352 -116.00317383 343.29345703 C-131.08281432 334.8368195 -146.22972714 328.64811093 -163.34765625 325.828125 C-164.09112305 325.70405273 -164.83458984 325.57998047 -165.60058594 325.45214844 C-171.93597773 324.51223692 -178.20320109 324.52454731 -184.59765625 324.640625 C-184.61223877 325.3519458 -184.62682129 326.0632666 -184.6418457 326.79614258 C-184.71626631 330.01568832 -184.81294625 333.23419018 -184.91015625 336.453125 C-184.93271484 337.57267578 -184.95527344 338.69222656 -184.97851562 339.84570312 C-185.01396484 340.91884766 -185.04941406 341.99199219 -185.0859375 343.09765625 C-185.11212158 344.08741455 -185.13830566 345.07717285 -185.1652832 346.09692383 C-185.65984225 349.00647251 -186.2642299 349.89645841 -188.59765625 351.640625 C-190.97265625 352.515625 -190.97265625 352.515625 -193.59765625 352.640625 C-198.19467118 350.44659515 -198.19467118 350.44659515 -199.59765625 347.640625 C-199.70045731 346.17592016 -199.74350425 344.70678542 -199.75537109 343.23852539 C-199.76563324 342.32740494 -199.77589539 341.41628448 -199.78646851 340.47755432 C-199.7974205 338.99786415 -199.7974205 338.99786415 -199.80859375 337.48828125 C-199.83665624 335.41210141 -199.86532066 333.33592963 -199.89453125 331.25976562 C-199.9358562 327.97664563 -199.97273191 324.6936772 -199.99902344 321.41040039 C-200.02655707 318.24854214 -200.07242311 315.08737516 -200.12109375 311.92578125 C-200.12434662 310.94134537 -200.12759949 309.95690948 -200.13095093 308.94264221 C-200.1475174 308.0283696 -200.16408386 307.11409698 -200.18115234 306.17211914 C-200.19328262 304.96538292 -200.19328262 304.96538292 -200.20565796 303.73426819 C-200.70075464 301.08998165 -201.42680531 300.20411172 -203.59765625 298.640625 C-206.64668611 298.35430908 -209.48707722 298.24432 -212.53515625 298.27734375 C-213.41163818 298.27684525 -214.28812012 298.27634674 -215.19116211 298.27583313 C-217.04380562 298.27817306 -218.89645234 298.28789681 -220.74902344 298.30444336 C-223.58687732 298.32803539 -226.42379173 298.32500385 -229.26171875 298.31835938 C-231.06120353 298.32393621 -232.86068434 298.33104612 -234.66015625 298.33984375 C-235.5102124 298.33893234 -236.36026855 298.33802094 -237.23608398 298.33708191 C-242.21283078 298.39369115 -242.21283078 298.39369115 -246.59765625 300.640625 Z " fill="#000000" transform="translate(270.59765625,1.359375)"/>
<path d="M0 0 C2.2109375 1.56640625 2.2109375 1.56640625 4 4 C4.390625 7.453125 4.390625 7.453125 4.25 11.25 C4.21390625 12.51328125 4.1778125 13.7765625 4.140625 15.078125 C4.09421875 16.04234375 4.0478125 17.0065625 4 18 C4.67804688 18.08636719 5.35609375 18.17273438 6.0546875 18.26171875 C15.13200003 19.63211635 23.19164961 22.63089802 30 29 C31.54586876 32.09173752 31.29359521 34.59429552 31 38 C29.5 40.4375 29.5 40.4375 27 42 C21.00278232 42.89958265 17.89438061 41.84094028 13.0546875 38.2890625 C10.49060365 36.56764611 10.49060365 36.56764611 5 35 C4.67 50.18 4.34 65.36 4 81 C7.3 81.99 10.6 82.98 14 84 C24.21541793 87.96565607 33.37099065 94.85248539 38 105 C42.72429379 117.374972 41.91044247 128.81596461 37 141 C31.95635285 152.00145534 23.67979403 159.36559779 12.640625 164.125 C9.77448621 165.07472646 6.98640578 165.58085533 4 166 C4.05220703 167.55460937 4.05220703 167.55460937 4.10546875 169.140625 C4.13361482 170.51040042 4.16091411 171.88019341 4.1875 173.25 C4.21263672 173.93191406 4.23777344 174.61382812 4.26367188 175.31640625 C4.3091715 178.44071368 4.19068191 180.64497662 2.69921875 183.421875 C-0.03767764 185.9637282 -2.34570628 186 -6 186 C-8.80189446 184.23358828 -10.51524911 182.96950178 -12 180 C-12.07116382 177.62597499 -12.08409085 175.24999323 -12.0625 172.875 C-12.05347656 171.59367188 -12.04445313 170.31234375 -12.03515625 168.9921875 C-12.02355469 168.00476563 -12.01195312 167.01734375 -12 166 C-13.051875 166.0825 -14.10375 166.165 -15.1875 166.25 C-25.80000781 166.19384917 -36.63515942 161.30473935 -45 155 C-46.78363328 152.29594955 -47.01228105 151.29474522 -46.875 148 C-45.85227852 144.49352636 -44.98496444 143.09754258 -42 141 C-35.5284074 140.25720601 -31.32512991 143.2237293 -25.828125 146.2734375 C-21.13694375 148.56153633 -21.13694375 148.56153633 -12 150 C-12.495 121.29 -12.495 121.29 -13 92 C-17.95 89.36 -22.9 86.72 -28 84 C-36.64939699 77.33058546 -41.27234616 70.83516237 -43 60 C-43.90270245 49.16757061 -40.81134008 39.42729576 -34 31 C-27.90800965 23.94611643 -21.12446903 20.41513756 -12 19 C-12.05220703 17.67935547 -12.05220703 17.67935547 -12.10546875 16.33203125 C-12.13253906 15.17058594 -12.15960938 14.00914062 -12.1875 12.8125 C-12.23970703 11.08966797 -12.23970703 11.08966797 -12.29296875 9.33203125 C-11.97323533 5.6955965 -11.18158273 3.8894086 -9 1 C-5.90826248 -0.54586876 -3.40570448 -0.29359521 0 0 Z M-19 39 C-23.60543951 43.71254275 -26.8138078 48.61331176 -27.09765625 55.30078125 C-26.73961962 60.49667867 -25.57797816 64.0729508 -22 68 C-18.7 69.98 -15.4 71.96 -12 74 C-12 61.13 -12 48.26 -12 35 C-14.51609186 35 -17.05814213 37.49330546 -19 39 Z M4 98 C4 114.83 4 131.66 4 149 C12.90427657 146.45592098 17.39913045 142.97975576 22 135.00390625 C25.1460842 128.69944846 26.11034161 122.28844513 24.34765625 115.48046875 C22.12490844 109.1174954 19.58104697 105.78070924 14 102 C9.05 100.02 9.05 100.02 4 98 Z " fill="#000000" transform="translate(286,155)"/>
</svg>
