<?xml version="1.0" encoding="UTF-8"?>
<svg version="1.1" xmlns="http://www.w3.org/2000/svg" width="512" height="512">
<path d="M0 0 C5.70811457 3.72813726 5.70811457 3.72813726 6.80126953 8.49145508 C6.8572487 9.83325503 6.88271385 11.1765641 6.8828125 12.51953125 C6.91998886 13.61009323 6.91998886 13.61009323 6.95791626 14.72268677 C7.00953551 16.27847324 7.04905463 17.83470038 7.07751465 19.39108276 C7.15769271 23.47959724 7.34260669 27.56333051 7.5234375 31.6484375 C7.55771851 32.45818527 7.59199951 33.26793304 7.62731934 34.10221863 C9.4391544 73.65014404 24.47226609 114.8851094 53.359375 142.63671875 C85.98821283 171.83856326 126.91775198 179.22026577 169.50268555 179.53417969 C170.79730713 179.55383789 172.09192871 179.57349609 173.42578125 179.59375 C174.57473877 179.60083984 175.72369629 179.60792969 176.9074707 179.61523438 C180.34465271 180.04288092 182.23678378 180.94569469 185 183 C186.13624119 185.27248238 186.26446843 186.78302764 186.375 189.3125 C186.42398437 190.07175781 186.47296875 190.83101562 186.5234375 191.61328125 C185.92671814 194.3341434 185.0428495 196.11890866 182.96289062 198.00708008 C178.19750703 200.41762922 172.27248775 199.69394123 167.0625 199.6875 C164.33309482 199.72672066 161.60412198 199.78462965 158.875 199.83984375 C158.19715958 199.85121368 157.51931915 199.86258362 156.82093811 199.8742981 C133.98710387 200.27485833 110.98723208 203.66573531 90 213 C89.3395166 213.29245605 88.6790332 213.58491211 87.99853516 213.88623047 C54.75464364 228.90601307 31.80784769 256.18420513 19 290 C12.25600275 308.71706451 8.32828088 328.04398309 7.54296875 347.9453125 C7.51194061 348.6978833 7.48091248 349.4504541 7.44894409 350.22583008 C7.32548499 353.31465417 7.20752149 356.40303549 7.12182617 359.49316406 C7.05450609 361.79108615 6.95736022 364.08619852 6.85546875 366.3828125 C6.84380173 367.07553253 6.8321347 367.76825256 6.82011414 368.48196411 C6.62451094 372.32195595 6.05525912 373.93306696 3.57543945 376.93676758 C0.34542223 379.52439442 -1.10237845 379.68446433 -5.06640625 379.4296875 C-8.14220664 378.7461763 -9.87256659 377.25636877 -12 375 C-13.01430265 371.95709206 -13.15316218 369.79708865 -13.2109375 366.609375 C-13.23704102 365.51898926 -13.26314453 364.42860352 -13.29003906 363.30517578 C-13.31807617 362.13196777 -13.34611328 360.95875977 -13.375 359.75 C-14.43969644 326.14048604 -20.85265041 293.25265592 -38.2890625 264.1328125 C-38.65918457 263.51043701 -39.02930664 262.88806152 -39.41064453 262.24682617 C-40.43325147 260.54836359 -41.48140872 258.86535872 -42.53125 257.18359375 C-44.23730234 253.48563456 -44.43580664 251.02879028 -44 247 C-41.4511805 244.0763541 -39.80484394 243.15090824 -36 242.4375 C-31.93428847 243.19982091 -30.74056716 244.93238631 -28 248 C-26.44829408 250.2754698 -25.0106225 252.50518255 -23.625 254.875 C-23.23779785 255.53282471 -22.8505957 256.19064941 -22.45166016 256.8684082 C-15.23171763 269.34502769 -10.30153147 282.32896815 -5.70849609 295.95410156 C-4.88357169 298.33620579 -3.97289756 300.67453755 -3 303 C-2.82460693 302.41734375 -2.64921387 301.8346875 -2.46850586 301.234375 C4.69517079 277.62000066 13.49020625 255.79729529 30 237 C30.68320312 236.19691406 31.36640625 235.39382813 32.0703125 234.56640625 C50.80340905 213.04684552 76.03859293 196.64781184 104 190 C102.60468879 189.43620608 101.20870058 188.87408783 99.8125 188.3125 C98.88953125 187.93996094 97.9665625 187.56742188 97.015625 187.18359375 C95.05878161 186.41555807 93.09016345 185.67663917 91.109375 184.97265625 C71.53127531 177.91952034 55.10389358 167.2536744 40 153 C39.26265625 152.32710937 38.5253125 151.65421875 37.765625 150.9609375 C16.942559 131.2454814 3.62507391 102.57579464 -3 75 C-3.23074219 75.73412109 -3.46148437 76.46824219 -3.69921875 77.22460938 C-8.17834127 91.36128659 -12.61581023 105.09864572 -20 118 C-20.3609375 118.64356445 -20.721875 119.28712891 -21.09375 119.95019531 C-25.74720554 128.20280788 -30.74647362 135.84823983 -37 143 C-38.24910156 144.44826172 -38.24910156 144.44826172 -39.5234375 145.92578125 C-57.44987818 166.33168782 -80.42555067 180.18396438 -106.2890625 188.125 C-108.88859106 188.73668239 -108.88859106 188.73668239 -110 190 C-108.48986328 190.49306641 -108.48986328 190.49306641 -106.94921875 190.99609375 C-90.92460188 196.36141859 -75.69273296 202.98970218 -62 213 C-61.19691406 213.55816406 -60.39382813 214.11632812 -59.56640625 214.69140625 C-53.5295145 218.98502445 -53.5295145 218.98502445 -52 223 C-52.21394719 229.09749492 -52.21394719 229.09749492 -54.6875 231.9375 C-57.73323778 233.33689303 -59.65845051 233.32728598 -63 233 C-65.9375 231.3125 -65.9375 231.3125 -69 229 C-70.14656882 228.16490001 -71.29641797 227.3342884 -72.44921875 226.5078125 C-73.03622559 226.08661133 -73.62323242 225.66541016 -74.22802734 225.23144531 C-100.60774002 206.89867172 -132.21141784 200.33047589 -163.875 199.82421875 C-164.54065475 199.81220428 -165.20630951 199.80018982 -165.89213562 199.78781128 C-168.62555058 199.73942861 -171.35847199 199.69161716 -174.09228516 199.67407227 C-176.12473656 199.65859191 -178.15549825 199.61848781 -180.1875 199.57421875 C-181.37730469 199.55963623 -182.56710938 199.54505371 -183.79296875 199.5300293 C-187.59835636 198.90110904 -189.2740662 197.67707745 -192 195 C-193.09673607 192.34779691 -193.204207 189.85322561 -193 187 C-191.42569236 183.37909244 -190.31117074 182.20744716 -187 180 C-184.42939148 179.79419571 -181.9585844 179.69850715 -179.38671875 179.69140625 C-177.82339833 179.66874642 -176.26008467 179.64561593 -174.69677734 179.62207031 C-173.87860535 179.61292603 -173.06043335 179.60378174 -172.21746826 179.59436035 C-129.26129398 179.05340542 -86.73281715 170.06931363 -55.43359375 138.515625 C-27.98354062 109.49486039 -14.70931436 68.06731353 -13.80078125 28.69921875 C-13.76944092 27.40161621 -13.73810059 26.10401367 -13.70581055 24.76708984 C-13.65274169 22.17008277 -13.61845268 19.57261068 -13.60473633 16.97509766 C-13.39790739 5.50185792 -13.39790739 5.50185792 -9 1 C-5.61670875 -0.12776375 -3.54843366 -0.41746278 0 0 Z " fill="#000000" transform="translate(326,56)"/>
<path d="M0 0 C2.69990662 1.79993774 4.5418865 3.083773 6 6 C6.0945529 7.92047443 6.18365877 9.84143819 6.23950195 11.76342773 C6.61497666 23.91047404 8.87045685 34.81019838 13.375 46.125 C14.66284759 49.51514425 15.0241477 50.80681837 14.5625 54.5 C12.65872427 57.54604116 11.35575374 58.70345878 8 60 C4.9375 60 4.9375 60 2 59 C-0.12310418 56.76213343 -1.62497768 54.75004465 -3 52 C-3.31710938 52.65484375 -3.63421875 53.3096875 -3.9609375 53.984375 C-10.83977633 67.43801559 -19.39853425 76.11745621 -32 84 C-32.99 84.66 -33.98 85.32 -35 86 C-34.32195312 86.40089844 -33.64390625 86.80179687 -32.9453125 87.21484375 C-20.40701018 94.87328049 -9.85063708 104.2337951 -4 118 C-4 118.66 -4 119.32 -4 120 C-3.34 120 -2.68 120 -2 120 C-1.7215625 118.824375 -1.7215625 118.824375 -1.4375 117.625 C0.60306124 112.47923686 3.65783398 108.38534706 7 104 C7.57621094 103.23171875 8.15242188 102.4634375 8.74609375 101.671875 C14.37311094 94.7500388 21.42324664 90.50135769 29 86 C28.195625 85.38125 27.39125 84.7625 26.5625 84.125 C23.58924444 81.65937343 23.12755482 80.95666113 22.625 77.1875 C23 74 23 74 25.125 71.125 C28.58215698 68.56971006 29.7935128 68.63154857 34 69 C37.078125 70.0234375 37.078125 70.0234375 40.25 71.375 C47.59556445 74.29343975 53.98317514 75.92418291 61.890625 76.1953125 C62.77935303 76.2272168 63.66808105 76.25912109 64.58374023 76.29199219 C66.37442263 76.34646405 68.16581854 76.3816167 69.95727539 76.39550781 C74.13804853 76.50358606 76.43062548 76.64185685 80.04296875 78.9140625 C82.38663584 81.41210287 82.93384132 82.40457187 83.3125 85.8125 C82.92653707 89.74932188 81.76603321 91.23396679 79 94 C76.23279611 94.9224013 74.50127616 95.1341009 71.640625 95.17578125 C54.13940499 95.5998052 37.06579456 97.81049642 23.6171875 110.26171875 C10.57903753 124.27615532 6.84793688 142.93465383 6.40625 161.50390625 C5.97976481 165.17413938 5.18512466 167.06306265 3 170 C0.28562321 172.13272462 -1.04826833 171.99745956 -4.5625 171.8125 C-9.18705036 170.71942446 -9.18705036 170.71942446 -11 168 C-12.22246827 164.32392522 -12.17743638 160.65988369 -12.3125 156.8125 C-13.21960058 139.7582237 -17.66348543 122.49898059 -29.8515625 109.890625 C-40.72349314 100.32332603 -54.68677969 96.1290344 -68.875 95.5 C-84.08757855 94.81883977 -84.08757855 94.81883977 -87.4375 91.8125 C-89.30215998 88.45611204 -89.6303761 86.7822566 -89 83 C-87.20006226 80.30009338 -85.916227 78.4581135 -83 77 C-81.59383745 76.89507058 -80.1833595 76.84479183 -78.7734375 76.82421875 C-62.94679426 76.43990405 -48.5589241 75.00879611 -35 66 C-34.36964844 65.59523438 -33.73929688 65.19046875 -33.08984375 64.7734375 C-21.3904535 56.08550761 -16.16214836 40.72595167 -13.40234375 27.03515625 C-12.82094736 22.64928255 -12.6505805 18.25122444 -12.48242188 13.83398438 C-12.23288856 8.87627528 -11.78102773 4.84463586 -8.25 1.1875 C-5.22105071 -0.41111212 -3.38597949 -0.48371136 0 0 Z " fill="#000000" transform="translate(175,305)"/>
<path d="M0 0 C4.08418514 3.65659897 4.51565619 6.95027186 4.85839844 12.14477539 C4.90512695 13.04574951 4.95185547 13.94672363 5 14.875 C6.38445709 33.36260621 11.04929549 49.98089512 25 63 C34.57759491 71.02542483 46.41314692 74.59637301 58.6953125 75.39453125 C59.74074219 75.46349609 60.78617188 75.53246094 61.86328125 75.60351562 C64.04482715 75.74329132 66.2271909 75.87082045 68.41015625 75.98632812 C69.45300781 76.05916016 70.49585938 76.13199219 71.5703125 76.20703125 C72.51664551 76.2635083 73.46297852 76.31998535 74.43798828 76.37817383 C77.66088779 77.16040416 78.92811191 78.45805734 81 81 C81.92866509 84.74390967 81.50374653 88.06447074 79.6875 91.4375 C76.98926956 93.93586152 74.40987305 94.12113048 70.89453125 94.17578125 C58.48669106 94.49863894 46.76045195 95.54780381 35.24609375 100.6015625 C31.73362469 102.11475615 29.76617792 102.65498746 26 102 C22.67725596 99.54405875 21.22381992 98.0743356 20.375 94 C21.20127939 90.0338589 22.89474674 88.51377645 26 86 C26.66 86 27.32 86 28 86 C28 85.34 28 84.68 28 84 C27.195625 83.814375 26.39125 83.62875 25.5625 83.4375 C20.62280063 81.44428798 17.01518252 78.45677965 13 75 C12.24203125 74.3503125 11.4840625 73.700625 10.703125 73.03125 C4.10025524 66.9292876 0.11310285 59.87877739 -4 52 C-6.2757756 54.9211448 -8.1743975 57.94259628 -10.0625 61.125 C-16.3490863 71.00956965 -24.61092871 78.55295221 -35 84 C-35.66 84 -36.32 84 -37 84 C-37 84.66 -37 85.32 -37 86 C-35.92492188 86.38671875 -35.92492188 86.38671875 -34.828125 86.78125 C-20.90875844 92.77965106 -11.9156703 105.05813468 -5 118 C-4.38125 117.195625 -3.7625 116.39125 -3.125 115.5625 C-0.27050431 112.12031402 0.34325314 112.06355615 4.875 111.625 C8.20416588 111.67957649 8.83276417 111.86539555 11.5625 114.0625 C13.84729117 118.73142109 12.43191122 122.66212865 10.87890625 127.47265625 C10.44449219 128.65730469 10.01007813 129.84195313 9.5625 131.0625 C6.23495685 140.58231139 5.12859266 150.00784944 4.6875 160.0625 C4.39114176 164.18137726 4.15474785 165.75877542 1.875 169.3125 C-1.82050433 171.48160037 -3.78124348 171.75334938 -8 171 C-10.88514259 168.94343297 -12.69624759 167.29826453 -13.52197266 163.76904297 C-13.80322933 161.05196781 -13.95193757 158.35429281 -14.0625 155.625 C-15.25051274 137.99581701 -19.40457299 120.42684733 -33 108 C-45.97972987 97.45553859 -60.75391112 94.79782263 -76.95703125 94.51660156 C-81.75088153 94.37419166 -85.12476053 94.14814863 -89 91 C-90.59745879 87.80508241 -90.50816842 84.46790611 -90 81 C-87.79259319 78.03141843 -86.51402627 77.17134209 -83 76 C-81.54923056 75.89864153 -80.0947765 75.84540607 -78.640625 75.82421875 C-60.63649326 75.38965368 -44.36830439 73.04749182 -30.625 60.1875 C-17.11936957 45.5354289 -14.06673837 25.97837158 -13.5390625 6.7421875 C-12.86928046 3.3350354 -11.65897773 2.16104182 -9 0 C-5.77839187 -1.61080407 -3.42436421 -0.82657067 0 0 Z " fill="#000000" transform="translate(90,36)"/>
</svg>
