<?xml version="1.0" encoding="UTF-8"?>
<svg version="1.1" xmlns="http://www.w3.org/2000/svg" width="512" height="512">
<path d="M0 0 C1.6015625 0.94921875 1.6015625 0.94921875 3.375 2.3125 C4.79413696 3.36908813 4.79413696 3.36908813 6.24194336 4.44702148 C9.60856758 7.27058336 11.45244408 10.57609258 13.27734375 14.5234375 C13.6133812 15.22318695 13.94941864 15.9229364 14.29563904 16.64389038 C18.08845513 24.63452729 21.52392488 32.77975654 24.9375 40.9375 C25.65734197 42.64617479 26.37782218 44.3545808 27.09887695 46.06274414 C28.26223573 48.81890771 29.42518665 51.57523642 30.58628845 54.33235168 C35.21360179 65.31815235 39.8926234 76.28187525 44.56878662 87.24694824 C47.02132196 92.99862615 49.47174821 98.751202 51.921875 104.50390625 C52.62429825 106.15312576 52.62429825 106.15312576 53.34091187 107.83566284 C59.36748677 121.98815329 65.37545077 136.14853369 71.375 150.3125 C78.71425035 151.01666481 86.05370715 151.71865497 93.39324951 152.41976929 C96.13195912 152.68151511 98.87060191 152.94394539 101.60919189 153.2069397 C119.21497816 154.89735893 136.82408708 156.54226052 154.44020462 158.12165451 C160.30849964 158.6488591 166.17629137 159.18164591 172.04410362 159.71419334 C177.82178649 160.23777247 183.60023088 160.75170523 189.37935638 161.2590971 C193.02449681 161.5814403 196.66877554 161.9128281 200.3128891 162.24656105 C202.01325287 162.40038845 203.71396145 162.55045891 205.41501617 162.69644737 C228.53624448 164.6855665 228.53624448 164.6855665 237.375 173.3125 C243.84557361 181.79007535 244.10529286 190.00725632 243.375 200.3125 C241.85853639 205.91682203 238.63609041 209.44779009 234.375 213.3125 C233.33163806 214.3942007 232.29012771 215.477689 231.25 216.5625 C228.39866664 219.41997847 225.39588253 221.97140547 222.25 224.5 C217.95939876 227.9501136 213.88833509 231.55022092 209.875 235.3125 C205.13655469 239.75105252 200.25378683 243.90393847 195.1875 247.96875 C191.39335871 251.13053441 187.81216235 254.49795364 184.20874023 257.87329102 C180.883452 260.97030084 177.48780061 263.90871684 173.9375 266.75 C169.56248028 270.25893139 165.45479091 273.97094505 161.375 277.8125 C156.46803946 282.4329227 151.43674627 286.77482658 146.171875 290.98828125 C142.30145402 294.20462271 138.6303349 297.61851404 134.96459961 301.06469727 C134.19901733 301.78290649 134.19901733 301.78290649 133.41796875 302.515625 C132.92216309 302.99064453 132.42635742 303.46566406 131.91552734 303.95507812 C130.375 305.3125 130.375 305.3125 128.61962891 306.46679688 C126.6459633 307.70810451 126.6459633 307.70810451 124.375 310.3125 C124.69434734 317.65083156 126.46501795 324.7130361 128.11889648 331.84960938 C128.39868347 333.07517044 128.67847046 334.30073151 128.96673584 335.56343079 C129.72883912 338.90121077 130.49708358 342.23754957 131.26647449 345.57365608 C132.0739736 349.07996382 132.87567005 352.58759789 133.67799377 356.09509277 C135.19800223 362.7361127 136.72306916 369.37595992 138.25003058 376.0153842 C140.1508269 384.28140119 142.04517228 392.54889418 143.93945312 400.81640625 C145.87535971 409.26485703 147.81185029 417.71317084 149.75254822 426.16052246 C150.0512206 427.46087093 150.34989109 428.76121984 150.64855957 430.06156921 C151.19772936 432.45214522 151.74715267 434.84266302 152.29689026 437.23310852 C152.99195634 440.25903859 153.68441887 443.28554355 154.375 446.3125 C154.57634111 447.1915802 154.77768223 448.0706604 154.98512459 448.97637939 C155.16611639 449.77585999 155.34710819 450.57534058 155.53358459 451.39904785 C155.68938523 452.08466042 155.84518587 452.77027298 156.00570774 453.47666168 C158.0467062 463.6229431 155.79292144 472.13679038 150.1875 480.625 C144.16931776 486.37570748 137.54775503 489.3951788 129.25 489.625 C128.38117188 489.66238281 127.51234375 489.69976562 126.6171875 489.73828125 C116.82297047 488.45205275 108.31704607 482.59592927 100 477.625 C98.7267444 476.87097452 97.45322005 476.11740268 96.17944336 475.36425781 C86.20604803 469.45466882 76.29609064 463.43956802 66.39794922 457.4050293 C56.83088971 451.57358243 47.19744314 445.86181721 37.54150391 440.17919922 C31.66524349 436.71505989 25.79744912 433.23664885 19.93078613 429.75628662 C18.54473859 428.9342669 17.15843676 428.11267577 15.77185059 427.29156494 C14.45054907 426.50910581 13.12961068 425.72603313 11.80905151 424.94232178 C10.526252 424.1815263 9.24235004 423.42258636 7.95730591 422.66558838 C4.83453275 420.81713933 1.75785776 418.92646647 -1.26904297 416.92431641 C-1.85040512 416.54600174 -2.43176727 416.16768707 -3.03074646 415.77790833 C-4.60836713 414.74546295 -6.17369381 413.6943002 -7.73803711 412.6418457 C-11.31884255 410.99300971 -12.88448081 411.17394787 -16.625 412.3125 C-19.43458357 413.66403854 -19.43458357 413.66403854 -22.2109375 415.4609375 C-23.28988281 416.12673828 -24.36882812 416.79253906 -25.48046875 417.47851562 C-26.33777588 418.01665894 -26.33777588 418.01665894 -27.21240234 418.56567383 C-29.67725642 420.11251957 -32.15526363 421.63769915 -34.63287354 423.16400146 C-35.9467643 423.97342453 -37.26002711 424.7838677 -38.57269287 425.59527588 C-45.20301773 429.68792223 -51.901884 433.66144659 -58.61099243 437.62316895 C-69.38997483 443.98847695 -80.12707635 450.41641055 -90.8125 456.9375 C-101.81425106 463.64973686 -112.89742753 470.21128098 -124.03588867 476.69384766 C-131.19663586 480.86559144 -131.19663586 480.86559144 -138.25 485.21484375 C-145.2216246 489.5479021 -152.56792024 490.41432287 -160.625 489.3125 C-168.67551981 486.66468695 -174.56036142 482.81425401 -178.625 475.3125 C-178.96144531 474.69632812 -179.29789062 474.08015625 -179.64453125 473.4453125 C-183.85388735 464.18088493 -181.59652149 453.40799252 -179.33349609 443.91381836 C-179.08954102 442.8435289 -178.84558594 441.77323944 -178.59423828 440.67051697 C-177.79124552 437.16150682 -176.9699497 433.65706001 -176.1484375 430.15234375 C-175.57871549 427.67853745 -175.01018453 425.20445657 -174.44277954 422.7301178 C-173.0995064 416.88491934 -171.74482937 411.04248307 -170.38430369 405.2012859 C-168.71017009 398.01104252 -167.05212834 390.81711934 -165.39453125 383.62304688 C-163.69061837 376.22921934 -161.98573514 368.83564602 -160.26889038 361.44480896 C-158.97580022 355.87783411 -157.69283682 350.30859969 -156.41484833 344.73814011 C-155.86543124 342.35527095 -155.31151319 339.97343695 -154.75409698 337.5924263 C-153.88360832 333.87302183 -153.0259796 330.15083923 -152.17041016 326.42797852 C-151.90003119 325.28679786 -151.62965221 324.1456172 -151.35107994 322.96985531 C-151.10959032 321.90811376 -150.8681007 320.8463722 -150.61929321 319.75245667 C-150.40261805 318.82030618 -150.18594288 317.88815569 -149.9627018 316.92775822 C-149.59324017 314.06654289 -149.7954977 312.06863514 -150.625 309.3125 C-152.74922621 306.84645919 -152.74922621 306.84645919 -155.5 304.5625 C-155.99395264 304.1291333 -156.48790527 303.6957666 -156.99682617 303.24926758 C-161.13044721 299.65096392 -165.40938994 296.23164363 -169.67578125 292.79296875 C-173.7347645 289.37912191 -177.57033662 285.74715059 -181.43066406 282.11230469 C-185.74691437 278.07010202 -190.22985366 274.316692 -194.84765625 270.62109375 C-198.04942799 267.95970542 -201.08734918 265.15787754 -204.125 262.3125 C-208.02076281 258.66361551 -211.95834284 255.15551562 -216.125 251.8125 C-221.52936782 247.47322656 -226.57455123 242.80853585 -231.640625 238.0859375 C-236.28946099 233.75262026 -241.09133355 229.60947993 -245.94140625 225.50390625 C-267.8982168 206.8881575 -267.8982168 206.8881575 -269.03515625 196.6015625 C-269.47556966 188.32336689 -268.78024748 181.11276364 -263.625 174.3125 C-258.41038605 168.62493269 -252.33078055 165.21976774 -244.61499023 164.29907227 C-243.98826385 164.22347108 -243.36153746 164.14786989 -242.71581936 164.06997776 C-231.14038752 162.73047037 -219.51985207 161.7641276 -207.91483235 160.71949458 C-204.30826976 160.39409111 -200.70205761 160.06484907 -197.09580994 159.73597717 C-190.28139913 159.11506039 -183.46672507 158.49708883 -176.65192932 157.88041264 C-164.43794812 156.7751023 -152.22435474 155.66552452 -140.01097006 154.55364329 C-135.73402767 154.16440813 -131.45694799 153.77672908 -127.17974579 153.39035976 C-125.16077106 153.20780498 -123.14185224 153.0246455 -121.12295532 152.8412323 C-118.67112009 152.61852513 -116.2191965 152.3967875 -113.76716614 152.17623901 C-111.64498477 151.98288536 -109.52339435 151.78286273 -107.4026432 151.57440662 C-105.65642818 151.40975435 -103.90758514 151.26934239 -102.15678978 151.16401958 C-98.09041904 150.89736561 -98.09041904 150.89736561 -94.95129395 148.51902771 C-94.63285522 147.73085159 -94.3144165 146.94267548 -93.98632812 146.13061523 C-93.60300827 145.22819595 -93.21968842 144.32577667 -92.82475281 143.39601135 C-92.43914688 142.39778854 -92.05354095 141.39956573 -91.65625 140.37109375 C-91.00515007 138.80324379 -91.00515007 138.80324379 -90.34089661 137.20372009 C-88.90589872 133.73053192 -87.51628731 130.24090071 -86.125 126.75 C-85.12743741 124.31643535 -84.12632267 121.88432404 -83.12182617 119.45361328 C-81.55108257 115.65017512 -79.98344881 111.84559777 -78.43095398 108.03466797 C-74.77686203 99.06690937 -71.03121013 90.14261759 -67.20703125 81.24609375 C-66.9432304 80.63237097 -66.67942955 80.01864819 -66.40763474 79.38632774 C-65.09480739 76.33377479 -63.7800088 73.28207989 -62.46435547 70.23074341 C-60.5154397 65.70806061 -58.57435382 61.18204795 -56.63485718 56.65531921 C-55.71065998 54.50004723 -54.7847615 52.3455039 -53.85708618 50.19172668 C-51.63277484 45.02366689 -49.4254193 39.84979464 -47.26583195 34.65438652 C-46.20497643 32.10500234 -45.13581935 29.55913635 -44.06606102 27.01347733 C-43.31717346 25.22196573 -42.58005328 23.42554921 -41.84333801 21.6289978 C-38.60393388 13.93456431 -35.04967062 5.64450089 -27.4375 1.375 C-26.78394531 0.99472656 -26.13039062 0.61445313 -25.45703125 0.22265625 C-18.66297189 -3.15264403 -6.84994238 -3.31147312 0 0 Z M-13.625 40.3125 C-13.85985107 40.86466187 -14.09470215 41.41682373 -14.33666992 41.98571777 C-23.94142355 64.56598028 -33.54641352 87.14613287 -43.21484375 109.69921875 C-43.48268299 110.32400745 -43.75052223 110.94879616 -44.02647781 111.59251785 C-46.86672394 118.21741638 -49.70897093 124.84145418 -52.55273438 131.46484375 C-53.02893723 132.5746611 -53.50514008 133.68447845 -53.99577332 134.82792664 C-54.92037693 136.98240622 -55.84573911 139.13656045 -56.77192688 141.2903595 C-58.86391213 146.16355543 -60.93549862 151.04299512 -62.9519043 155.94799805 C-63.31212173 156.82027542 -63.67233917 157.6925528 -64.04347229 158.59126282 C-64.70138688 160.18964479 -65.35349525 161.7904365 -65.99815369 163.39421082 C-69.58764668 172.10482071 -74.24298451 177.60952969 -82.90621948 181.38060188 C-87.98008827 183.11973777 -93.20423384 183.45132252 -98.52148438 183.91186523 C-99.74896141 184.03043853 -100.97643845 184.14901182 -102.24111176 184.27117825 C-106.03449218 184.63365441 -109.829363 184.97457093 -113.625 185.3125 C-115.86182059 185.52057674 -118.09855949 185.72953411 -120.33520508 185.93948364 C-125.83360485 186.45014765 -131.33369506 186.93917471 -136.83473206 187.42051888 C-140.40049228 187.73310957 -143.96584891 188.04999669 -147.53112793 188.36802673 C-157.64161741 189.26965625 -167.75241507 190.16761938 -177.86425781 191.05395508 C-184.10871949 191.60160545 -190.35244119 192.15709486 -196.5957489 192.71774101 C-198.95901852 192.92842422 -201.32255561 193.13612959 -203.68635559 193.34077644 C-206.96413892 193.62479954 -210.24088662 193.91877169 -213.51757812 194.21508789 C-214.487789 194.29669159 -215.45799988 194.37829529 -216.45761108 194.46237183 C-217.79349777 194.58620491 -217.79349777 194.58620491 -219.15637207 194.71253967 C-219.9274958 194.78054307 -220.69861954 194.84854647 -221.49311066 194.91861057 C-223.82199795 195.34889748 -225.56641176 196.16100125 -227.625 197.3125 C-218.58926753 205.80542108 -218.58926753 205.80542108 -209.125 213.8125 C-204.36391522 217.63244011 -199.91226975 221.70188819 -195.4609375 225.87109375 C-192.11383131 228.98818554 -188.69485859 231.94831113 -185.125 234.8125 C-180.36311158 238.6330849 -175.91064406 242.70317803 -171.45874023 246.87329102 C-168.133452 249.97030084 -164.73780061 252.90871684 -161.1875 255.75 C-156.81247117 259.2589387 -152.70486092 262.97100802 -148.625 266.8125 C-142.05613814 272.99590298 -135.15281112 278.67471104 -128.12109375 284.32421875 C-121.88320333 289.5550033 -117.33486179 295.2043397 -115.625 303.3125 C-114.95183417 311.58850643 -116.38155704 319.16034614 -118.27124023 327.18432617 C-118.55248749 328.42153915 -118.83373474 329.65875214 -119.12350464 330.93345642 C-119.88788228 334.29520534 -120.66665578 337.65346772 -121.44801211 341.01130462 C-122.26673211 344.54219194 -123.07115179 348.07633365 -123.87696838 351.61018372 C-125.40362942 358.29603967 -126.94170028 364.97921072 -128.4845534 371.66134673 C-131.24713865 383.62789467 -133.99006766 395.59895634 -136.72895581 407.57094747 C-137.68903612 411.76549013 -138.65406267 415.95885445 -139.62335384 420.1512779 C-140.08090228 422.13241791 -140.53670126 424.11395117 -140.99179077 426.09565735 C-141.54485061 428.50324192 -142.10077385 430.91017139 -142.66020203 433.31628418 C-143.95627849 438.97897237 -145.03873468 444.53146203 -145.625 450.3125 C-136.64992804 445.53629899 -127.91518077 440.3956074 -119.1875 435.1875 C-117.74813068 434.33058838 -116.30867663 433.47381907 -114.86914062 432.6171875 C-106.68513675 427.7447245 -98.51194431 422.85439812 -90.35058594 417.9440918 C-85.30153019 414.90935341 -80.24173539 411.89312982 -75.17578125 408.88671875 C-74.51006104 408.49159088 -73.84434082 408.09646301 -73.15844727 407.68936157 C-69.70384523 405.63954123 -66.24801223 403.59182907 -62.79052734 401.546875 C-56.28668086 397.69686929 -49.80044944 393.82392927 -43.36328125 389.86328125 C-41.68141724 388.83424683 -41.68141724 388.83424683 -39.96557617 387.78442383 C-37.89351546 386.51375081 -35.82680765 385.23428647 -33.7668457 383.9440918 C-24.34136408 378.18049583 -15.65712176 374.70023921 -4.625 377.3125 C4.85678653 381.39984268 13.68120909 386.75308868 22.4375 392.1875 C24.89481898 393.69910318 27.35529254 395.20552221 29.81640625 396.7109375 C30.75264328 397.28427826 30.75264328 397.28427826 31.70779419 397.86920166 C38.37628039 401.94285377 45.1222832 405.88066827 51.875 409.8125 C63.25687963 416.44703269 74.54186657 423.22812821 85.7901001 430.08638 C96.94839869 436.88959645 108.16021625 443.60286355 119.375 450.3125 C120.52840915 446.8767815 120.20866614 444.54832789 119.40103149 441.04371643 C119.15984085 439.97684601 118.91865021 438.90997559 118.67015076 437.81077576 C118.39695511 436.64546829 118.12375946 435.48016083 117.84228516 434.27954102 C117.56118393 433.04828491 117.2800827 431.81702881 116.99046326 430.54846191 C116.21954114 427.17260111 115.43744626 423.79941632 114.65338182 420.42658734 C113.83446643 416.89502893 113.02597042 413.36108737 112.21640015 409.82737732 C110.68064531 403.13108892 109.13574906 396.43694496 107.58746564 389.74354357 C105.65742574 381.3978458 103.73871806 373.04955024 101.8203125 364.70117188 C101.14864304 361.77853783 100.47688793 358.8559235 99.80502319 355.93333435 C99.64223133 355.22519134 99.47943948 354.51704833 99.31171453 353.78744644 C98.18879407 348.90423323 97.0628053 344.02173392 95.93545532 339.13954163 C95.63327186 337.83011179 95.33110175 336.52067888 95.02894592 335.21124268 C94.47020879 332.79060531 93.91089868 330.3701001 93.35090637 327.94975281 C92.98066093 326.34521744 92.98066093 326.34521744 92.60293579 324.70826721 C92.38870279 323.78152978 92.1744698 322.85479235 91.95374489 321.89997196 C89.66264092 311.65682788 89.13952938 302.78159192 94.375 293.3125 C96.99683816 289.68441265 99.7923564 286.99730004 103.3125 284.25 C107.67100254 280.76203725 111.8053266 277.13204799 115.875 273.3125 C119.74932186 269.68259692 123.66404388 266.19498324 127.8125 262.875 C132.18751972 259.36606861 136.29520909 255.65405495 140.375 251.8125 C145.28808115 247.1863141 150.32621721 242.83979313 155.59765625 238.62109375 C158.79942799 235.95970542 161.83734918 233.15787754 164.875 230.3125 C168.77076281 226.66361551 172.70834284 223.15551562 176.875 219.8125 C181.71375904 215.92875919 186.26194901 211.80101119 190.79174805 207.56713867 C193.70221441 204.84814455 196.63721537 202.18847153 199.6875 199.625 C200.574375 198.861875 201.46125 198.09875 202.375 197.3125 C202.375 196.9825 202.375 196.6525 202.375 196.3125 C189.48217306 194.35631811 176.518434 193.27640251 163.53136444 192.15558052 C159.5361813 191.81007645 155.54149014 191.45935575 151.54693604 191.10667419 C140.20030609 190.10568351 128.85321931 189.1101303 117.50488281 188.12866211 C111.20989851 187.58417967 104.91559324 187.03243896 98.62193894 186.47278732 C95.30620304 186.17826573 91.9902153 185.88859863 88.67345428 185.6057148 C84.97641138 185.29008636 81.28066799 184.96195863 77.58496094 184.63110352 C76.50728455 184.54217331 75.42960815 184.4532431 74.3192749 184.36161804 C64.9058921 183.49602924 53.56840232 182.44853702 47.09448242 174.79956055 C41.80115587 167.37639722 38.6220469 158.98187635 35.17358398 150.60147095 C33.11673264 145.60391481 31.0279366 140.61966922 28.9453125 135.6328125 C28.50290222 134.57079117 28.06049194 133.50876984 27.60467529 132.41456604 C22.12512701 119.27664336 16.49647644 106.20260984 10.875 93.125 C8.92632945 88.59016718 6.97831684 84.05505287 5.03125 79.51953125 C4.56786224 78.44015793 4.10447449 77.36078461 3.62704468 76.248703 C-1.50171922 64.2889075 -6.56744184 52.30255843 -11.625 40.3125 C-12.285 40.3125 -12.945 40.3125 -13.625 40.3125 Z " fill="#000000" transform="translate(268.625,12.6875)"/>
</svg>
